<svg width="410px" height="366px" viewBox="0 0 410 366" version="1.1" xmlns="http://www.w3.org/2000/svg">
  <title>image</title>
  <desc>Created with Sketch.</desc>
  <defs></defs>
  <g id="Page-1" stroke="none" stroke-width="1" fill="none" fill-rule="evenodd">
    <g id="21-Lost_Page" transform="translate(-205.000000, -303.000000)">
      <g id="image" transform="translate(207.000000, 293.000000)">
        <polygon id="Fill-1" fill="#3C2A34" points="194.0354 361.050781 211.0354 361.050781 211 184.773 194 184.773"></polygon>
        <polygon id="Fill-2" fill="#D8E9EF" points="194 210.773 211 210.773 211 184.773 194 184.773"></polygon>
        <polygon id="Fill-4" fill="#FF6E75" points="173.2173 198.773 131.0003 156.664 131.0003 97.052 173.2173 54.773 232.8293 54.773 275.0003 97.052 275.0003 156.664 232.8293 198.773"></polygon>
        <polygon id="Stroke-5" stroke="#F3F0E8" stroke-width="3" points="180.423 187 143 150.152 143 100.6 180.413 67 229.977 67 263 100.6 263 150.152 229.966 187"></polygon>
        <g id="Group-14" transform="translate(201.000000, 70.773000)" fill="#FAFCFB">
          <path d="M3.1299,1.1563 C3.1299,1.7803 2.6239,2.2863 1.9999,2.2863 C1.3749,2.2863 0.8699,1.7803 0.8699,1.1563 C0.8699,0.5313 1.3749,0.0253 1.9999,0.0253 C2.6239,0.0253 3.1299,0.5313 3.1299,1.1563" id="Fill-6"></path>
          <path d="M3.1299,5.7344 C3.1299,6.3584 2.6239,6.8634 1.9999,6.8634 C1.3749,6.8634 0.8699,6.3584 0.8699,5.7344 C0.8699,5.1094 1.3749,4.6034 1.9999,4.6034 C2.6239,4.6034 3.1299,5.1094 3.1299,5.7344" id="Fill-8"></path>
          <path d="M3.1299,108.2832 C3.1299,108.9072 2.6239,109.4122 1.9999,109.4122 C1.3749,109.4122 0.8699,108.9072 0.8699,108.2832 C0.8699,107.6582 1.3749,107.1522 1.9999,107.1522 C2.6239,107.1522 3.1299,107.6582 3.1299,108.2832" id="Fill-10"></path>
          <path d="M3.1299,112.8613 C3.1299,113.4853 2.6239,113.9903 1.9999,113.9903 C1.3749,113.9903 0.8699,113.4853 0.8699,112.8613 C0.8699,112.2363 1.3749,111.7303 1.9999,111.7303 C2.6239,111.7303 3.1299,112.2363 3.1299,112.8613" id="Fill-12"></path>
        </g>
        <polygon id="Fill-15" fill="#3C2A34" points="182 372.031738 224 372.031738 224 361 182 361"></polygon>
        <path d="M101.92627,373.999023 L303.92627,373.999023" id="Stroke-16" stroke="#3C2A34" stroke-width="4" stroke-linecap="round" stroke-linejoin="round"></path>
        <path d="M180.833876,21.274532 C180.833876,27.69752 176.13188,32.215124 170.077676,32.215124 C164.054204,32.215124 159.321476,27.69752 159.321476,21.274532 C159.321476,14.851544 164.054204,10.33394 170.077676,10.33394 C176.13188,10.33394 180.833876,14.851544 180.833876,21.274532 Z M162.179552,21.274532 C162.179552,26.498972 165.560072,29.787296 170.077676,29.787296 C174.59528,29.787296 177.9758,26.498972 177.9758,21.274532 C177.9758,16.01936 174.59528,12.761768 170.077676,12.761768 C165.560072,12.761768 162.179552,16.01936 162.179552,21.274532 Z M200.502356,23.5487 C200.502356,28.896068 196.660856,32.276588 191.866664,32.276588 C187.103204,32.276588 183.476828,28.896068 183.476828,23.5487 C183.476828,18.232064 187.226132,14.882276 191.989592,14.882276 C196.783784,14.882276 200.502356,18.232064 200.502356,23.5487 Z M186.334904,23.5487 C186.334904,27.820448 188.947124,29.818028 191.866664,29.818028 C194.786204,29.818028 197.64428,27.820448 197.64428,23.5487 C197.64428,19.307684 194.847668,17.310104 191.95886,17.310104 C189.008588,17.310104 186.334904,19.307684 186.334904,23.5487 Z M206.986808,18.262796 C208.000964,16.48034 210.213668,14.882276 213.286868,14.882276 C217.804472,14.882276 221.277188,18.262796 221.277188,23.517968 C221.277188,28.742408 217.804472,32.276588 213.286868,32.276588 C210.213668,32.276588 208.031696,30.61706 206.986808,28.896068 L206.986808,39.99032 L204.190196,39.99032 L204.190196,15.158864 L206.986808,15.158864 L206.986808,18.262796 Z M218.419112,23.517968 C218.419112,19.55354 215.806892,17.310104 212.70296,17.310104 C209.660492,17.310104 206.986808,19.645736 206.986808,23.5487 C206.986808,27.513128 209.660492,29.818028 212.70296,29.818028 C215.806892,29.818028 218.419112,27.482396 218.419112,23.517968 Z M237.073436,27.420932 C237.073436,30.186812 234.645608,32.276588 230.927036,32.276588 C226.99334,32.276588 224.22746,30.125348 224.043068,27.052148 L226.931876,27.052148 C227.085536,28.680944 228.52994,29.910224 230.896304,29.910224 C233.109008,29.910224 234.338288,28.803872 234.338288,27.420932 C234.338288,23.671628 224.38112,25.8536 224.38112,19.584272 C224.38112,17.002784 226.808948,14.882276 230.558252,14.882276 C234.276824,14.882276 236.735384,16.879856 236.919776,20.16818 L234.123164,20.16818 C234.000236,18.47792 232.709492,17.24864 230.466056,17.24864 C228.407012,17.24864 227.177732,18.232064 227.177732,19.584272 C227.177732,23.579432 236.950508,21.39746 237.073436,27.420932 Z M241.959824,25.945796 L241.621772,10.579796 L244.633508,10.579796 L244.295456,25.945796 L241.959824,25.945796 Z M245.094488,30.279008 C245.094488,31.354628 244.264724,32.184392 243.250568,32.184392 C242.174948,32.184392 241.345184,31.354628 241.345184,30.279008 C241.345184,29.203388 242.174948,28.373624 243.250568,28.373624 C244.264724,28.373624 245.094488,29.203388 245.094488,30.279008 Z" id="Oops!" fill="#000000"></path>
        <g id="Group-46" transform="translate(0.000000, 105.773000)">
          <path d="M0,171 L96,171" id="Stroke-24" stroke="#E8EEF0" stroke-width="4" stroke-linecap="round" stroke-linejoin="round"></path>
          <path d="M36,162 L82,162" id="Stroke-26" stroke="#E8EEF0" stroke-width="4" stroke-linecap="round" stroke-linejoin="round"></path>
          <path d="M310,9 L406,9" id="Stroke-28" stroke="#E8EEF0" stroke-width="4" stroke-linecap="round" stroke-linejoin="round"></path>
          <path d="M346,0 L392,0" id="Stroke-30" stroke="#E8EEF0" stroke-width="4" stroke-linecap="round" stroke-linejoin="round"></path>
          <path d="M41.4497,49.5 C40.9347,42.236 34.8947,36.5 27.4997,36.5 C20.1057,36.5 14.0657,42.236 13.5507,49.5 L41.4497,49.5 Z" id="Fill-32" fill="#E8EEF0"></path>
          <path d="M82.4497,49.5 C81.9347,42.236 75.8947,36.5 68.4997,36.5 C61.1057,36.5 55.0657,42.236 54.5507,49.5 L82.4497,49.5 Z" id="Fill-34" fill="#E8EEF0"></path>
          <path d="M66.4497,49.5 C65.9287,40.58 58.5517,33.5 49.4997,33.5 C40.4487,33.5 33.0707,40.58 32.5507,49.5 L66.4497,49.5 Z" id="Fill-36" fill="#E8EEF0"></path>
          <path d="M322.4492,151 C322.4722,150.668 322.5002,150.338 322.5002,150 C322.5002,142.268 316.2322,136 308.5002,136 C300.7672,136 294.5002,142.268 294.5002,150 C294.5002,150.338 294.5272,150.668 294.5512,151 L322.4492,151 Z" id="Fill-38" fill="#E8EEF0"></path>
          <path d="M363.4492,151 C363.4722,150.668 363.5002,150.338 363.5002,150 C363.5002,142.268 357.2322,136 349.5002,136 C341.7672,136 335.5002,142.268 335.5002,150 C335.5002,150.338 335.5272,150.668 335.5512,151 L363.4492,151 Z" id="Fill-40" fill="#E8EEF0"></path>
          <path d="M377.4492,151 C377.4722,150.668 377.5002,150.338 377.5002,150 C377.5002,142.268 371.2322,136 363.5002,136 C355.7672,136 349.5002,142.268 349.5002,150 C349.5002,150.338 349.5272,150.668 349.5512,151 L377.4492,151 Z" id="Fill-42" fill="#E8EEF0"></path>
          <path d="M347.4492,151 C347.4692,150.667 347.5002,150.338 347.5002,150 C347.5002,140.611 339.8882,133 330.5002,133 C321.1112,133 313.5002,140.611 313.5002,150 C313.5002,150.338 313.5312,150.667 313.5512,151 L347.4492,151 Z" id="Fill-44" fill="#E8EEF0"></path>
        </g>
        <path d="M175.221839,128.43175 L170.162234,128.43175 L170.162234,132.701112 L174.985793,132.701112 L175.11921,130.91537 L177.397572,130.91537 L177.397572,135 L165.574722,135 L165.574722,133.203994 L167.16547,132.896107 L167.16547,122.171387 L165.574722,121.8635 L165.574722,120.057231 L177.377046,120.057231 L177.377046,124.152125 L175.078159,124.152125 L174.944741,122.366382 L170.162234,122.366382 L170.162234,126.1226 L175.221839,126.1226 L175.221839,128.43175 Z M186.710513,120.057231 C188.40732,120.057231 189.738061,120.445507 190.702778,121.222069 C191.667494,121.998632 192.149845,123.071093 192.149845,124.439486 C192.149845,125.192101 191.94801,125.845499 191.544335,126.399698 C191.140659,126.953897 190.548838,127.402038 189.768855,127.744136 C190.651468,128.004131 191.28605,128.436878 191.672621,129.042392 C192.059192,129.647906 192.252474,130.3988 192.252474,131.295096 L192.252474,132.05455 C192.252474,132.382965 192.317472,132.637824 192.447469,132.819136 C192.577466,133.000448 192.792985,133.108207 193.094031,133.142417 L193.463495,133.193731 L193.463495,135 L191.913799,135 C190.935398,135 190.247792,134.736588 189.850958,134.209757 C189.454124,133.682926 189.25571,133.002161 189.25571,132.167442 L189.25571,131.315622 C189.25571,130.590374 189.062428,130.02079 188.675857,129.606851 C188.289286,129.192912 187.743648,128.975683 187.038926,128.955157 L184.586095,128.955157 L184.586095,132.896107 L186.187106,133.203994 L186.187106,135 L179.998583,135 L179.998583,133.203994 L181.589331,132.896107 L181.589331,122.171387 L179.998583,121.8635 L179.998583,120.057231 L186.710513,120.057231 Z M184.586095,126.646007 L186.659199,126.646007 C187.493918,126.646007 188.119948,126.468119 188.537308,126.112337 C188.954667,125.756555 189.163344,125.243415 189.163344,124.572903 C189.163344,123.902391 188.956378,123.367015 188.542439,122.966761 C188.128501,122.566506 187.517865,122.366382 186.710513,122.366382 L184.586095,122.366382 L184.586095,126.646007 Z M202.160663,120.057231 C203.85747,120.057231 205.188211,120.445507 206.152928,121.222069 C207.117644,121.998632 207.599995,123.071093 207.599995,124.439486 C207.599995,125.192101 207.39816,125.845499 206.994485,126.399698 C206.590809,126.953897 205.998988,127.402038 205.219005,127.744136 C206.101618,128.004131 206.7362,128.436878 207.122771,129.042392 C207.509342,129.647906 207.702624,130.3988 207.702624,131.295096 L207.702624,132.05455 C207.702624,132.382965 207.767622,132.637824 207.897619,132.819136 C208.027616,133.000448 208.243135,133.108207 208.544181,133.142417 L208.913645,133.193731 L208.913645,135 L207.363949,135 C206.385548,135 205.697942,134.736588 205.301108,134.209757 C204.904274,133.682926 204.70586,133.002161 204.70586,132.167442 L204.70586,131.315622 C204.70586,130.590374 204.512578,130.02079 204.126007,129.606851 C203.739436,129.192912 203.193798,128.975683 202.489076,128.955157 L200.036245,128.955157 L200.036245,132.896107 L201.637256,133.203994 L201.637256,135 L195.448733,135 L195.448733,133.203994 L197.039481,132.896107 L197.039481,122.171387 L195.448733,121.8635 L195.448733,120.057231 L202.160663,120.057231 Z M200.036245,126.646007 L202.109349,126.646007 C202.944068,126.646007 203.570098,126.468119 203.987458,126.112337 C204.404817,125.756555 204.613494,125.243415 204.613494,124.572903 C204.613494,123.902391 204.406528,123.367015 203.992589,122.966761 C203.578651,122.566506 202.968015,122.366382 202.160663,122.366382 L200.036245,122.366382 L200.036245,126.646007 Z M224.55879,127.641507 C224.55879,129.830935 223.93276,131.640607 222.680681,133.070577 C221.428602,134.500546 219.789977,135.215521 217.764757,135.215521 C215.746378,135.215521 214.116305,134.500546 212.874489,133.070577 C211.632673,131.640607 211.011775,129.830935 211.011775,127.641507 L211.011775,127.415724 C211.011775,125.23998 211.630963,123.433729 212.869358,121.996918 C214.107753,120.560106 215.736115,119.841711 217.754494,119.841711 C219.779714,119.841711 221.42005,120.560106 222.67555,121.996918 C223.93105,123.433729 224.55879,125.23998 224.55879,127.415724 L224.55879,127.641507 Z M221.572289,127.395198 C221.572289,125.848915 221.250722,124.593434 220.607577,123.628717 C219.964433,122.664001 219.013415,122.18165 217.754494,122.18165 C216.495573,122.18165 215.556528,122.66058 214.93733,123.618454 C214.318133,124.576329 214.008539,125.835231 214.008539,127.395198 L214.008539,127.641507 C214.008539,129.215159 214.321554,130.482613 214.947593,131.443908 C215.573633,132.405204 216.512678,132.885845 217.764757,132.885845 C219.030519,132.885845 219.981538,132.405204 220.61784,131.443908 C221.254143,130.482613 221.572289,129.215159 221.572289,127.641507 L221.572289,127.395198 Z M233.471479,120.057231 C235.168285,120.057231 236.499027,120.445507 237.463743,121.222069 C238.42846,121.998632 238.910811,123.071093 238.910811,124.439486 C238.910811,125.192101 238.708976,125.845499 238.3053,126.399698 C237.901625,126.953897 237.309804,127.402038 236.52982,127.744136 C237.412433,128.004131 238.047016,128.436878 238.433587,129.042392 C238.820157,129.647906 239.01344,130.3988 239.01344,131.295096 L239.01344,132.05455 C239.01344,132.382965 239.078438,132.637824 239.208435,132.819136 C239.338432,133.000448 239.553951,133.108207 239.854997,133.142417 L240.224461,133.193731 L240.224461,135 L238.674764,135 C237.696364,135 237.008757,134.736588 236.611923,134.209757 C236.21509,133.682926 236.016676,133.002161 236.016676,132.167442 L236.016676,131.315622 C236.016676,130.590374 235.823393,130.02079 235.436822,129.606851 C235.050252,129.192912 234.504613,128.975683 233.799891,128.955157 L231.347061,128.955157 L231.347061,132.896107 L232.948071,133.203994 L232.948071,135 L226.759548,135 L226.759548,133.203994 L228.350296,132.896107 L228.350296,122.171387 L226.759548,121.8635 L226.759548,120.057231 L233.471479,120.057231 Z M231.347061,126.646007 L233.420164,126.646007 C234.254884,126.646007 234.880914,126.468119 235.298273,126.112337 C235.715633,125.756555 235.92431,125.243415 235.92431,124.572903 C235.92431,123.902391 235.717344,123.367015 235.303405,122.966761 C234.889466,122.566506 234.27883,122.366382 233.471479,122.366382 L231.347061,122.366382 L231.347061,126.646007 Z" id="ERROR" fill="#FAFCFB"></path>
      </g>
    </g>
  </g>
</svg>
