<?xml version="1.0" encoding="UTF-8"?>
<svg width="47px" height="47px" viewBox="0 0 47 47" version="1.1" xmlns="http://www.w3.org/2000/svg" xmlns:xlink="http://www.w3.org/1999/xlink">
    <!-- Generator: Sketch 50.2 (55047) - http://www.bohemiancoding.com/sketch -->
    <title>Group 3</title>
    <desc>Created with Sketch.</desc>
    <defs></defs>
    <g id="Page-1" stroke="none" stroke-width="1" fill="none" fill-rule="evenodd">
        <g id="styleguide10" transform="translate(-793.000000, -576.000000)" fill="#FFFFFF">
            <g id="Icons" transform="translate(559.000000, 550.000000)">
                <g id="2" transform="translate(176.680384, 0.000000)">
                    <g id="Group-3" transform="translate(57.613169, 26.886145)">
                        <path d="M21.4290261,1.61768902 C21.4730169,2.46582968 22.1972016,3.11798952 23.0453699,3.0740001 C34.0937833,3.0740001 43.0179351,11.9978614 43.0179351,23.0459152 C43.0179351,34.0939689 34.0937833,43.0178302 23.0453699,43.0178302 C11.9969566,43.0178302 3.07280476,34.0939689 3.07280476,23.0459152 C3.07280476,13.6478489 9.54237952,5.79069265 18.2601481,3.65011303 C19.0863466,3.45207357 19.5944691,2.61992068 19.3964335,1.79374913 C19.1983978,0.967577577 18.3662076,0.459471574 17.5400091,0.657500793 C7.47178784,3.12997267 0,12.2355784 0,23.0460176 C0,35.7543008 10.3365706,46.090535 23.0452675,46.090535 C35.7539643,46.090535 46.090535,35.7543008 46.090535,23.0460176 C46.090535,10.3377344 35.7539643,0.00150019808 23.0452675,0.00150019808 C22.9912545,-0.000500066027 22.9392439,-0.000500066027 22.8852309,0.00150019808 C22.0372163,0.045406661 21.3850352,0.769548358 21.4290261,1.61768902 Z" id="Shape" fill-rule="nonzero"></path>
                        <g id="Group-4" transform="translate(11.522634, 15.363512)">
                            <polygon id="Fill-1" points="0 2.88065844 23.0452675 2.88065844 23.0452675 0 0 0"></polygon>
                            <polygon id="Fill-1-Copy" points="3.8284532 9.6113375 19.1919649 9.6113375 19.1919649 6.73067907 3.8284532 6.73067907"></polygon>
                            <polygon id="Fill-1-Copy-2" points="7.68175583 16.0493827 15.3635117 16.0493827 15.3635117 13.1687243 7.68175583 13.1687243"></polygon>
                        </g>
                    </g>
                </g>
            </g>
        </g>
    </g>
</svg>