<?xml version="1.0" encoding="UTF-8"?>
<svg width="22px" height="28px" viewBox="0 0 22 28" version="1.1" xmlns="http://www.w3.org/2000/svg" xmlns:xlink="http://www.w3.org/1999/xlink">
    <!-- Generator: Sketch 52.4 (67378) - http://www.bohemiancoding.com/sketch -->
    <title>icon - apple</title>
    <desc>Created with Sketch.</desc>
    <g id="Page-1" stroke="none" stroke-width="1" fill="none" fill-rule="evenodd">
        <g id="13-Details-Popup" transform="translate(-548.000000, -725.000000)" fill="#FFFFFF">
            <g id="popup" transform="translate(370.000000, 351.000000)">
                <g id="Group-8" transform="translate(156.000000, 364.000000)">
                    <g id="Button---App-Store">
                        <g id="Group-6" transform="translate(22.000000, 10.000000)">
                            <g id="icon---apple">
                                <path d="M21.5230037,20.4447115 C21.1212822,21.8469551 20.4877982,23.2491987 19.6225518,24.6514423 C18.2937806,26.8501603 16.9701596,27.9495192 15.651689,27.9495192 C15.1469619,27.9495192 14.4259233,27.770032 13.488573,27.4110577 C12.6027256,27.0520833 11.8250339,26.8725962 11.155498,26.8725962 C10.5271643,26.8725962 9.79582509,27.0576923 8.96148036,27.4278846 C8.12713564,27.8092949 7.4472992,28 6.92197104,28 C5.35628712,28 3.80605401,26.5472756 2.27127175,23.6418269 C0.757090582,20.7139423 0,17.8926282 0,15.1778846 C0,12.6201923 0.581981201,10.5224359 1.74594359,8.88461538 C2.89960543,7.26923077 4.36228383,6.46153846 6.1339788,6.46153846 C6.87561856,6.46153846 7.78721742,6.62980769 8.86877539,6.96634615 C9.94003281,7.30288462 10.6507709,7.47115385 11.0009897,7.47115385 C11.4645145,7.47115385 12.201004,7.28044872 13.2104581,6.89903846 C14.2611144,6.5176282 15.1521122,6.32692308 15.8834514,6.32692308 C17.1092171,6.32692308 18.2062259,6.69150642 19.1744778,7.42067308 C19.7101065,7.82451923 20.2457352,8.38541666 20.7813639,9.10336538 C19.9676203,9.85496795 19.3804889,10.5168269 19.0199695,11.0889423 C18.3504336,12.1434295 18.0156657,13.3044872 18.0156657,14.5721154 C18.0156657,15.963141 18.3710347,17.2139423 19.0817728,18.3245192 C19.7925109,19.4350962 20.6062546,20.1418269 21.5230037,20.4447115 L21.5230037,20.4447115 Z M15.7134923,0.706730769 C15.7134923,1.39102565 15.5641343,2.15384615 15.2654183,2.99519231 C14.9564017,3.83653846 14.477426,4.61057692 13.8284913,5.31730769 C13.2722614,5.92307692 12.7160316,6.32692308 12.1598018,6.52884615 C11.7786814,6.65224358 11.2430527,6.74759615 10.5529157,6.81490385 C10.5838173,5.14342949 10.9855389,3.70192308 11.7580803,2.49038462 C12.5203211,1.29006411 13.8078902,0.459935892 15.6207873,0 C15.6310879,0.0336538462 15.6439636,0.0953525697 15.6594144,0.185096154 C15.6748652,0.274839738 15.6877409,0.336538462 15.6980415,0.370192308 C15.6980415,0.415064108 15.7006166,0.471153846 15.7057669,0.538461538 C15.7109172,0.605769231 15.7134923,0.661858969 15.7134923,0.706730769 L15.7134923,0.706730769 Z" id="Shape"></path>
                            </g>
                        </g>
                    </g>
                </g>
            </g>
        </g>
    </g>
</svg>