<?xml version="1.0" encoding="UTF-8"?>
<svg width="23px" height="12px" viewBox="0 0 23 12" version="1.1" xmlns="http://www.w3.org/2000/svg" xmlns:xlink="http://www.w3.org/1999/xlink">
    <!-- Generator: Sketch 50.2 (55047) - http://www.bohemiancoding.com/sketch -->
    <title>np_view_777498_000000</title>
    <desc>Created with Sketch.</desc>
    <defs></defs>
    <g id="Page-1" stroke="none" stroke-width="1" fill="none" fill-rule="evenodd">
        <g id="forum" transform="translate(-187.000000, -660.000000)" fill="#37B3AB" fill-rule="nonzero">
            <g id="posts" transform="translate(151.000000, 565.000000)">
                <g id="q1">
                    <g id="np_view_777498_000000" transform="translate(36.000000, 95.000000)">
                        <path d="M11.5130241,2.507 C9.22796024,2.507 7.36942169,4.36664699 7.36942169,6.65060241 C7.36942169,8.93566627 9.22906867,10.7942048 11.5130241,10.7942048 C13.7969795,10.7942048 15.6566265,8.93563855 15.6566265,6.65060241 C15.6566265,4.36556627 13.7969795,2.507 11.5130241,2.507 Z M11.5130241,8.85444578 C10.2974325,8.85444578 9.30915301,7.86616627 9.30915301,6.6505747 C9.30915301,5.43498313 10.2974325,4.44670361 11.5130241,4.44670361 C12.7286157,4.44670361 13.7168952,5.43498313 13.7168952,6.6505747 C13.7168952,7.86616627 12.7286157,8.85444578 11.5130241,8.85444578 Z M22.590988,6.08876506 C19.8534614,2.24166867 15.8159639,0.0356084337 11.5121928,0.0356084337 C7.20953012,0.0356084337 3.1706747,2.24164096 0.43339759,6.08876506 L0.033973494,6.65054699 L0.434478313,7.21232892 C1.72150843,9.02001807 3.36129759,10.5234976 5.17663494,11.559606 C5.32817723,11.6462024 5.49378554,11.6873364 5.65617108,11.6873364 C5.99280241,11.6873364 6.32078795,11.5108959 6.49941205,11.1980737 C6.76461313,10.7326147 6.60224422,10.1405171 6.13786867,9.87532434 C4.75556867,9.08620265 3.48693855,7.97884964 2.43708554,6.64950506 C4.78494217,3.66948096 8.05823012,1.97440867 11.5146036,1.97440867 C15.1818566,1.97440867 18.6446036,3.88385205 21.0130494,7.21231229 C21.3237157,7.64853639 21.9298904,7.7502906 22.3661145,7.43962711 C22.8001771,7.13004157 22.9019313,6.52494759 22.5912651,6.08872349 L22.590988,6.08876506 Z" id="Shape"></path>
                    </g>
                </g>
            </g>
        </g>
    </g>
</svg>