<svg width="218" height="84" viewBox="0 0 218 84" fill="none" xmlns="http://www.w3.org/2000/svg">
<path d="M122.112 0.872894H119.675V59.2875H122.112V0.872894Z" fill="#003E75"/>
<path d="M194.448 12.9729L194.173 13.0708C193.054 13.3875 191.771 13.3875 190.558 12.3396C189.674 11.5528 188.972 10.5822 188.502 9.4958C188.177 8.6396 187.923 7.7581 187.742 6.8604C187.025 3.3187 188.392 1.2354 190.129 1.06457C191.192 0.954148 192.764 1.48123 192.837 4.8875C192.91 8.2937 192.5 11 194.242 12.7917L194.448 12.9729Z" fill="#00A2D8"/>
<path d="M196.573 15.0583C202.108 14.6708 206.26 9.5104 207.242 7.6187C209.006 4.2667 208.331 1.96249 206.564 1.47915C204.798 0.995822 202.908 2.10415 201.514 5.3021C200.121 8.5 198.727 11.9583 195.429 13.6646C195.429 13.6646 194.131 14.3812 191.841 13.9396C191.841 13.9396 193.083 15.25 196.573 15.0583Z" fill="#00A2D8"/>
<path d="M188.846 18.8667L189.094 19.0875L189.165 18.6042C189.481 16.4104 188.625 14.0208 186.887 12.6021C186.411 12.2198 185.898 11.8868 185.354 11.6083C184.599 11.3336 183.81 11.166 183.008 11.1104C180.3 10.9583 178.496 12.1729 178.594 13.8854C178.662 14.9271 179.242 16.8021 182.375 16.8521C184.954 16.8646 187.094 17.3208 188.846 18.8667Z" fill="#F16722"/>
<path d="M189.454 14.6667C190.187 16.3356 190.334 18.2036 189.871 19.9667C189.071 22.8229 186.121 24.6167 183.648 25.9146C181.175 27.2125 180.446 29.2812 180.94 30.4125C181.602 31.9437 183.823 32.5937 186.148 31.475C187.79 30.7021 192.494 27.5417 191.981 21.4437C191.371 16.0375 189.454 14.6667 189.454 14.6667Z" fill="#F16722"/>
<path d="M194.048 24.5791C195.692 21.2812 197.856 20.3833 197.856 20.3833C203.031 17.8166 210.814 23.0604 211.754 23.6125C212.694 24.1646 216.267 25.2146 217.508 22.6333C218.571 20.4521 217.189 18.7687 215.217 17.5687C212.002 15.6104 201.598 12.0354 195.815 20.2312C195.815 20.2312 194.6 21.8458 194.048 24.5791Z" fill="#8BC540"/>
<path d="M203.556 33.1062C202.631 31.9208 197.223 27.725 197.444 22.2062L197.471 21.8458L197.181 22.0541C195.567 23.1437 194.146 25.0062 193.967 26.7187C193.885 27.6378 193.908 28.5631 194.035 29.477C194.602 32.2528 195.941 34.8121 197.898 36.8604C200.285 39.3041 202.521 39.7312 203.708 38.3791C205.185 36.6812 204.854 34.777 203.556 33.1062Z" fill="#8BC540"/>
<path d="M143.377 59.5875H139.554V33.3562H143.377V59.5875ZM143.529 50.3292L150.746 42.5042H155.452L147.931 50.2604L155.604 59.5875H151.042L143.529 50.3292Z" fill="#35414C"/>
<path d="M164.421 42.1187C169.554 42.1187 173.267 45.7479 173.267 51.0604C173.267 56.3729 169.554 59.975 164.421 59.975C159.287 59.975 155.625 56.3459 155.625 51.0604C155.625 45.775 159.329 42.1187 164.421 42.1187ZM164.421 45.3896C161.579 45.3896 159.494 47.5958 159.494 51.0604C159.494 54.525 161.577 56.7042 164.421 56.7042C167.264 56.7042 169.402 54.4958 169.402 51.0604C169.402 47.625 167.36 45.3896 164.421 45.3896Z" fill="#35414C"/>
<path d="M176.496 43.5812C179.003 42.6417 181.656 42.1482 184.333 42.1229C188.694 42.1229 191.469 43.7791 191.469 48.5937V59.5916H187.687V48.95C187.687 46.4791 186.142 45.5812 184.029 45.5812C182.774 45.5714 181.524 45.7433 180.319 46.0916V59.5875H176.496V43.5812Z" fill="#35414C"/>
<path d="M201.748 55.9583L206.523 42.5042H210.481L201.21 66.5416H197.46L199.862 60.3583L192.798 42.5021H196.875L201.748 55.9583Z" fill="#35414C"/>
<path d="M207.281 58.1938V58.0146H208.69V58.1938H208.11V59.5875H207.875V58.1938H207.281Z" fill="#35414C"/>
<path d="M209.269 58.0146L209.821 59.3396L210.373 58.0146H210.692V59.5875H210.471V58.2917L209.919 59.5875H209.725L209.187 58.2917H209.173V59.5875H208.952V58.0146H209.269Z" fill="#35414C"/>
<path d="M0.422913 45.3854H4.86041V59.15H8.59791V45.3854H12.6895L13.8729 41.8875H0.422913V45.3854Z" fill="#003E75"/>
<path d="M24.1354 45.3875L25.4083 41.8896H15.5229V59.15H25.1083V55.652H19.2375V52.0791H24.3333V48.6062H19.2375V45.3875H24.1354Z" fill="#003E75"/>
<path d="M35.9041 49.2896L35.7374 49.5583C35.7145 49.525 35.6937 49.4875 35.6707 49.45L30.6353 41.8875H27.3478V59.15H31.0603V49.0833L34.6957 54.5958H36.8062L40.1936 49.1375V59.15H43.9061V41.8875H40.5562L35.9041 49.2896Z" fill="#003E75"/>
<path d="M55.4166 45.3875L56.6875 41.8896H46.8041V59.15H56.3875V55.652H50.5187V52.0791H55.6125V48.6062H50.5187V45.3875H55.4166Z" fill="#003E75"/>
<path d="M69.7124 52.2291L69.5312 51.9875L61.9833 41.8875H58.6292V59.15H62.3416V48.5958C62.3764 48.643 62.4139 48.6909 62.4541 48.7396L70.2562 59.1562H73.4249V41.8875H69.7124V52.2291Z" fill="#003E75"/>
<path d="M99.375 48.8479C97.808 47.9479 96.848 47.3458 96.848 46.3791C96.848 45.3729 97.987 45.2208 98.667 45.2208C99.737 45.2443 100.781 45.5622 101.683 46.1396L101.746 46.1791L102.95 42.8646L102.5 42.6416C101.276 42.0449 99.928 41.7465 98.567 41.7708C95.352 41.7708 93.106 43.7541 93.106 46.5937C93.081 47.84 93.543 49.0469 94.394 49.9583C95.206 50.8625 96.308 51.4916 97.279 52.0416C98.84 52.9354 99.798 53.5354 99.798 54.5854C99.798 55.6687 98.425 55.9562 97.698 55.9562C96.648 55.9442 95.628 55.604 94.781 54.9833L94.048 54.427L92.798 57.8687L92.902 57.9395C94.338 58.9094 96.038 59.4134 97.771 59.3833C101.179 59.3833 103.654 57.275 103.654 54.3729C103.656 51.3146 101.281 49.9458 99.375 48.8479Z" fill="#003E75"/>
<path d="M83.5583 41.75C82.424 41.7347 81.2979 41.9454 80.2459 42.37C79.194 42.7946 78.2371 43.4245 77.4312 44.2229C75.8749 45.85 75.0187 48.1167 75.0187 50.6083C75.0187 53.2542 75.9708 55.6084 77.702 57.2167C79.2354 58.6313 81.2624 59.3792 83.5666 59.3792C85.95 59.3792 88.042 58.5688 89.608 57.0292C91.233 55.4125 92.129 53.1146 92.129 50.5604C92.129 48.1833 91.383 46.0771 89.973 44.4625C88.425 42.7146 86.146 41.75 83.5583 41.75ZM83.5583 55.9167C80.6666 55.9167 78.8708 53.8792 78.8708 50.6C78.8708 47.3208 80.6666 45.2833 83.5583 45.2833C86.45 45.2833 88.246 47.3208 88.246 50.6C88.246 53.8792 86.458 55.9167 83.5583 55.9167Z" fill="#003E75"/>
<path d="M65.3332 6.025L52.1311 1.33121L34.5249 9.8833L39.9666 28.1958L52.0478 35.9541L69.0644 25.1333L65.3332 6.025Z" fill="white"/>
<g opacity="0.9">
<path opacity="0.9" d="M41.1749 12.0895C41.1353 12.1083 40.9666 12.4249 41.0124 12.4666C41.027 12.5145 41.2812 12.7333 41.3145 12.6749C41.3478 12.6166 41.5395 12.3499 41.477 12.2979C41.4583 12.2458 41.2082 12.0291 41.1749 12.0895Z" fill="#003E75"/>
<path opacity="0.9" d="M46.3104 29.9104C46.2874 29.9104 46.1812 29.9916 46.1958 30.0458C46.2104 30.1 46.2937 30.1646 46.3249 30.1562C46.3562 30.1479 46.4646 30.0687 46.452 30.0187C46.4395 29.9687 46.3541 29.8979 46.3104 29.9104Z" fill="#003E75"/>
<path opacity="0.9" d="M40.4875 9.71869C40.5947 9.78039 40.72 9.80299 40.842 9.78239C40.964 9.76189 41.0751 9.69959 41.1562 9.60619C41.2216 9.50649 41.2794 9.40209 41.3291 9.29369C41.4 9.16659 41.3291 8.95619 41.3166 8.81869C41.3196 8.66679 41.3731 8.52019 41.4687 8.40209C41.5479 8.25829 41.677 8.30409 41.7895 8.25209C41.902 8.19999 41.9979 8.01449 42.052 7.89999C42.1062 7.78539 42.0125 7.81249 41.952 7.82699L41.1333 8.01039C40.9687 8.04579 40.7583 8.03959 40.6562 8.21869L40.2271 8.98749C40.0666 9.29579 40.3208 9.57499 40.4875 9.71869Z" fill="#003E75"/>
<path opacity="0.9" d="M39.3291 10.0521L39.6229 9.56041C39.6521 9.51251 39.9354 9.12921 39.9021 9.06251C39.8687 8.99581 39.4708 9.13961 39.4208 9.15001C39.2708 9.18331 39.0958 9.17921 39.0041 9.35831C38.9395 9.47501 38.677 9.80001 38.8187 9.92081C38.9604 10.0417 39.1812 10.3021 39.3291 10.0521Z" fill="#003E75"/>
<path opacity="0.9" d="M37.2104 11.25C37.2486 11.2846 37.2956 11.3082 37.3463 11.3181C37.3969 11.328 37.4494 11.3239 37.4979 11.3062L37.9333 11.2083C38.0353 11.1854 38.1833 11.1187 38.277 11.2083C38.4728 11.377 38.5978 11.5354 38.8395 11.4812L39.2416 11.3916C39.3707 11.3625 39.4207 11.2395 39.4895 11.1166C39.5895 10.9395 39.127 10.6583 39.0082 10.6833C38.8312 10.7229 38.4416 10.9145 38.277 10.7708C38.1945 10.6858 38.1046 10.6084 38.0083 10.5396C37.9145 10.4583 37.7749 10.5208 37.6749 10.5396L37.2916 10.625C37.1645 10.6541 37.1041 10.8187 37.0374 10.9375C36.9541 11.0875 37.127 11.177 37.2104 11.25Z" fill="#003E75"/>
<path opacity="0.9" d="M39.9041 10.027C39.9187 10.0666 40.0833 10.2083 40.1125 10.1499C40.1437 10.1333 40.2583 9.927 40.2104 9.8875C40.1625 9.8479 40.0375 9.6937 40.0021 9.7625C39.9708 9.7812 39.8562 9.9854 39.9041 10.027Z" fill="#003E75"/>
<path opacity="0.9" d="M39.6583 10.2083C39.6208 10.2271 39.45 10.5416 39.4958 10.5854C39.5416 10.6291 39.7583 10.8646 39.8 10.7937C39.8375 10.775 40.0083 10.4583 39.9625 10.4146C39.9458 10.3625 39.6916 10.1458 39.6583 10.2083Z" fill="#003E75"/>
<path opacity="0.9" d="M41.6666 10.9791C41.7293 11.0223 41.781 11.0798 41.8172 11.1468C41.8534 11.2138 41.8732 11.2884 41.8749 11.3646C41.8958 11.5125 41.8749 11.6916 41.9916 11.7812C42.0922 11.8778 42.1979 11.9689 42.3083 12.0541C42.5166 12.2354 42.777 12.4708 43.027 12.2229C43.2354 12.0146 43.0729 11.6958 42.9145 11.5604C42.8741 11.5138 42.8437 11.4595 42.825 11.4007C42.8064 11.342 42.8 11.28 42.8062 11.2187C42.8062 11.1208 42.9854 10.9208 42.8895 10.8396L42.277 10.3083C42.1395 10.1896 41.8749 9.85209 41.6874 9.89159L40.8916 10.0687C40.7583 10.0979 40.4062 10.6104 40.552 10.7354L40.8666 11.0083C40.9749 11.1021 41.152 11.0187 41.2666 10.9937C41.3812 10.9687 41.552 10.8896 41.6666 10.9791Z" fill="#003E75"/>
<path opacity="0.9" d="M42.3083 8.99581C42.425 9.04581 42.5916 8.96661 42.7062 8.94161C42.9979 8.87701 43.1729 8.80831 43.4312 9.03331C43.6469 9.18651 43.8477 9.35941 44.0312 9.55001C44.127 9.63331 44.1291 9.83751 44.1479 9.96661L44.2291 10.525C44.2541 10.6937 44.375 10.7187 44.4604 10.8229C44.5458 10.927 44.575 11.2145 44.5958 11.3666C44.6395 11.6625 44.9958 11.8479 45.177 12.0062C45.2398 12.064 45.3219 12.0961 45.4072 12.0961C45.4926 12.0961 45.5747 12.064 45.6375 12.0062C45.8125 11.8291 45.7562 11.5895 45.7208 11.3604C45.7088 11.1914 45.7609 11.024 45.8666 10.8916L46.2 10.2916C46.2916 10.125 46.4541 10.127 46.5999 10.0958C46.6854 10.0849 46.7664 10.0513 46.8345 9.99851C46.9027 9.94581 46.9555 9.87581 46.9875 9.79581C47.0428 9.71901 47.0822 9.63181 47.1034 9.53951C47.1245 9.44721 47.1269 9.35151 47.1104 9.25831C47.0854 9.08751 46.977 8.73951 47.0666 8.57911C47.1093 8.51951 47.1389 8.45161 47.1536 8.37991C47.1683 8.30811 47.1678 8.23401 47.152 8.16251C47.1354 8.04791 47.0625 8.02701 47.0083 7.95411C46.9541 7.88121 46.925 7.76041 46.9083 7.65411C46.8604 7.33121 47.2395 7.11661 47.2645 6.82081C47.2791 6.65621 47.2208 6.56451 47.0958 6.59161L46.6166 6.69791C46.5213 6.73041 46.4229 6.75271 46.3229 6.76451C46.1854 6.79581 46.0166 6.58951 45.9062 6.49581C45.752 6.35201 45.3958 6.49581 45.1895 6.54161C44.9833 6.58751 44.552 6.65621 44.4812 6.78541C44.3395 7.04371 44.2583 7.27911 44 7.33751L43.1291 7.53121C42.9208 7.57911 42.7666 8.01041 42.6541 8.21661C42.6254 8.26821 42.5843 8.31181 42.5345 8.34351C42.4846 8.37521 42.4276 8.39381 42.3687 8.39791C42.2062 8.43331 42.1479 8.52291 42.0583 8.68541C41.9979 8.79371 42.225 8.96251 42.3083 8.99581Z" fill="#003E75"/>
<path opacity="0.9" d="M49.0333 11.9145C49.0687 11.9854 49.0333 12.0937 49.1041 12.1479C49.1654 12.197 49.2126 12.2613 49.2411 12.3345C49.2696 12.4076 49.2784 12.4869 49.2666 12.5645C49.2562 12.6354 49 12.9583 49.15 13.0228C49.2083 13.0478 49.252 12.8145 49.3125 12.8145C49.3916 12.7645 49.5041 12.8145 49.5812 12.7437C49.6175 12.712 49.6465 12.6729 49.6664 12.6291C49.6864 12.5853 49.6967 12.5377 49.6967 12.4895C49.6967 12.4414 49.6864 12.3938 49.6664 12.3499C49.6465 12.3061 49.6175 12.267 49.5812 12.2354L49.3083 12.0104C49.1729 11.8958 49.3375 11.827 49.3208 11.7124C49.3041 11.5979 49.1541 11.6541 49.1 11.6062C49.0458 11.5583 49.075 11.3229 48.9812 11.3541C48.9421 11.3987 48.9105 11.4494 48.8875 11.5041C48.8649 11.59 48.8685 11.6807 48.8979 11.7645C48.9437 11.8249 49 11.8499 49.0333 11.9145Z" fill="#003E75"/>
<path opacity="0.9" d="M50.8103 14.5854C50.8395 14.5687 50.9291 14.4021 50.8853 14.3646C50.8416 14.3271 50.7436 14.2021 50.7082 14.2687C50.677 14.2875 50.5874 14.4521 50.6311 14.4896C50.6749 14.5271 50.7791 14.6396 50.8103 14.5854Z" fill="#003E75"/>
<path opacity="0.9" d="M62.952 12.6395C63.0124 12.5312 63.2061 12.5041 63.2957 12.4791C63.4541 12.4374 63.5228 12.252 63.5499 12.1666C63.5828 12.0507 63.5878 11.9286 63.5645 11.8104C63.5479 11.67 63.5025 11.5345 63.4311 11.4124C63.4103 11.3812 63.2895 11.227 63.2228 11.2666C63.1561 11.3062 63.2999 11.7395 63.2895 11.9437C63.2895 12.0895 63.1082 12.1749 63.0228 12.2104C62.9197 12.241 62.8318 12.3094 62.777 12.402C62.7291 12.4958 62.4103 13.0416 62.4457 13.1166C62.4811 13.1916 62.6186 13.1291 62.6541 13.102C62.7225 13.045 62.7779 12.9739 62.8166 12.8937C62.8936 12.7624 62.8853 12.7604 62.952 12.6395Z" fill="#003E75"/>
<path opacity="0.9" d="M63.5583 11.1541C63.5916 11.1333 63.7291 10.9458 63.677 10.852C63.65 10.8041 63.5333 10.6708 63.4479 10.7104C63.4125 10.7312 63.2959 10.9187 63.3271 11.0124C63.3438 11.0541 63.4812 11.1812 63.5583 11.1541Z" fill="#003E75"/>
<path opacity="0.9" d="M60.7416 18.1166C60.7291 18.0374 60.7312 17.877 60.6708 17.8229L60.227 17.4312C60.1874 17.3958 59.8458 17.0416 59.7958 17.0624C59.7458 17.0833 59.7812 17.4437 59.9083 17.5604C60.0708 17.7062 60.2437 17.8395 60.4104 17.977C60.577 18.1145 60.4874 18.2645 60.5604 18.4416C60.5708 18.5249 60.9354 18.8583 60.977 18.8291C60.9883 18.6565 60.9515 18.4841 60.8708 18.3312C60.8348 18.3071 60.8045 18.2754 60.7822 18.2383C60.7598 18.2013 60.746 18.1597 60.7416 18.1166Z" fill="#003E75"/>
<path opacity="0.9" d="M58.2417 17.3896C58.1939 17.4489 58.1662 17.5219 58.1625 17.5979C58.1681 17.6283 58.1849 17.6554 58.2096 17.674C58.2343 17.6925 58.2651 17.701 58.2958 17.6979C58.313 17.6912 58.3285 17.6807 58.341 17.6671C58.3535 17.6535 58.3627 17.6372 58.3679 17.6195C58.3732 17.6018 58.3743 17.5832 58.3712 17.565C58.3681 17.5468 58.3608 17.5295 58.35 17.5146C58.3333 17.4896 58.2792 17.375 58.2417 17.3896Z" fill="#003E75"/>
<path opacity="0.9" d="M62.0833 14.6166C62.0708 14.5833 61.9979 14.5875 61.95 14.6416C61.9036 14.7108 61.8776 14.7917 61.875 14.875C61.875 14.9354 61.9396 15.0166 62.0083 15.0083C62.0771 15 62.1229 14.7125 62.0833 14.6166Z" fill="#003E75"/>
<path opacity="0.9" d="M55.9854 21.4187C55.9291 21.4041 55.6812 21.9145 55.6687 21.9958C55.6562 22.077 55.7208 22.2229 55.702 22.3312C55.6655 22.4373 55.6128 22.5371 55.5458 22.627C55.4958 22.7187 55.5666 22.8208 55.577 23.027C55.577 23.1562 55.6999 23.2353 55.7854 23.2833C55.9583 23.3895 56.202 23.1249 56.2166 22.8999C56.2036 22.6484 56.1667 22.3986 56.1062 22.1541C56.1 22.0812 56.0562 21.4375 55.9854 21.4187Z" fill="#003E75"/>
<path opacity="0.9" d="M62.5207 18.7624C62.5782 18.7155 62.6254 18.6573 62.6595 18.5913C62.6935 18.5254 62.7136 18.4531 62.7186 18.3791C62.7061 18.3145 62.4895 18.0812 62.3874 18.1332C62.271 18.2293 62.1963 18.3667 62.1791 18.5166C62.2062 18.6249 62.454 18.802 62.5207 18.7624Z" fill="#003E75"/>
<path opacity="0.9" d="M63.4228 18.1562C63.5339 18.1477 63.6433 18.1238 63.7478 18.0854C63.9124 18.0479 63.9666 18.3166 63.9874 18.4541C64.0166 18.6625 64.0249 18.8604 64.2103 18.9396C64.3957 19.0187 64.5291 18.8666 64.5978 18.7458C64.6374 18.6708 64.7291 18.5979 64.8061 18.6604C64.8374 18.675 64.9541 18.8291 64.9853 18.8041C65.0166 18.7791 64.9499 18.5062 64.9436 18.4625C64.9291 18.3625 64.8103 18.2979 64.752 18.2541C64.6936 18.2104 64.5832 18.0687 64.4936 18.0458C64.4041 18.0229 64.2978 18.1312 64.2145 18.0458C64.0728 17.9166 63.9353 17.7146 63.752 17.7541C63.6791 17.7708 63.127 17.8271 63.1145 17.9166C63.102 18.0062 63.3687 18.1687 63.4228 18.1562Z" fill="#003E75"/>
<path opacity="0.9" d="M65.5812 23.6687C65.5458 23.6875 65.4166 23.9166 65.4604 23.9687C65.5041 24.0208 65.6291 24.1458 65.6916 24.1104C65.7541 24.075 65.8458 23.8812 65.8104 23.8083C65.7958 23.7666 65.6395 23.625 65.5812 23.6687Z" fill="#003E75"/>
<path opacity="0.9" d="M68.0083 22.7C67.9916 22.6583 67.8437 22.5166 67.777 22.5583C67.7437 22.5771 67.6249 22.7979 67.6582 22.8604C67.6916 22.9229 67.8187 23.0416 67.8874 23C67.9283 22.9619 67.9604 22.9153 67.9813 22.8634C68.0021 22.8116 68.0114 22.7558 68.0083 22.7Z" fill="#003E75"/>
<path opacity="0.9" d="M67.4542 23.2083C67.4083 23.2625 67.3854 23.3333 67.3208 23.427C67.2562 23.5208 66.9333 23.9999 67.0062 24.0812C67.0791 24.1624 67.1958 24.2895 67.2354 24.2208C67.275 24.152 67.3416 24.0291 67.3687 23.9791C67.4896 23.7708 67.7334 23.4458 67.6854 23.327C67.6688 23.2875 67.5 23.1354 67.4542 23.2083Z" fill="#003E75"/>
<path opacity="0.9" d="M43.6312 19.8416C43.5999 19.8416 43.5103 19.9187 43.527 19.9645C43.5461 19.9919 43.5709 20.0148 43.5996 20.0317C43.6284 20.0486 43.6605 20.0591 43.6937 20.0624C43.7187 20.0624 43.8166 19.9812 43.7978 19.9395C43.7791 19.8979 43.6708 19.827 43.6312 19.8416Z" fill="#003E75"/>
<path opacity="0.9" d="M42.8167 19.1979C42.7667 19.1708 42.6208 19.2687 42.6917 19.3291C42.7851 19.3979 42.8748 19.4716 42.9604 19.55C43.1687 19.7166 43.2479 19.8187 43.3104 19.7958C43.3729 19.7729 43.4646 19.6833 43.3896 19.6125C43.3464 19.575 43.3004 19.5408 43.2521 19.5104C43.0458 19.3687 42.9521 19.277 42.8167 19.1979Z" fill="#003E75"/>
<path opacity="0.9" d="M62.4312 16.652C62.4895 16.7041 62.6395 16.4125 62.652 16.3583C62.6687 16.2562 62.4916 16.0875 62.4291 16.0937C62.3666 16.1 62.2104 16.3333 62.2083 16.3895C62.1958 16.5062 62.3875 16.6479 62.4312 16.652Z" fill="#003E75"/>
<path opacity="0.9" d="M62.125 16.0208C62.1646 16.0541 62.2667 15.8646 62.2688 15.8271C62.2708 15.7896 62.1646 15.6521 62.1229 15.6562C62.0812 15.6604 61.9812 15.8125 61.9792 15.8479C61.9708 15.9166 62.0979 16.0166 62.125 16.0208Z" fill="#003E75"/>
<path opacity="0.9" d="M62.1791 19.4C62.0186 19.25 61.8457 19.1125 61.6811 18.9687C61.6478 18.9417 61.5374 18.8229 61.4957 18.8604C61.454 18.8979 61.3415 19.0896 61.3915 19.1333C61.4427 19.1847 61.4977 19.232 61.5561 19.275L61.8895 19.5646C61.9228 19.5916 62.0082 19.675 62.0561 19.6666C62.1041 19.6583 62.2395 19.4583 62.1791 19.4Z" fill="#003E75"/>
<path opacity="0.9" d="M61.4313 18.3333C61.5792 18.2999 61.725 18.3104 61.8146 18.1479C61.8812 18.0291 62.0708 17.802 62.0479 17.6437C62.0146 17.4249 61.9812 17.2041 61.95 16.9833C61.9354 16.8749 61.7958 16.4978 61.6875 16.6312C61.6756 16.6573 61.6699 16.6858 61.6708 16.7145C61.6812 16.902 61.7271 16.9979 61.6396 17.1541C61.575 17.2687 61.4625 17.5958 61.3375 17.6249C61.2792 17.6374 61.1479 17.6249 61.1021 17.677C61.0563 17.7291 61.0646 17.7979 61.075 17.8687C61.1063 18.077 61.2104 18.3812 61.4313 18.3333Z" fill="#003E75"/>
<path opacity="0.9" d="M48.7187 12.8958C48.7954 12.8745 48.8631 12.8289 48.9116 12.7658C48.9601 12.7026 48.9867 12.6254 48.9874 12.5458C48.9708 12.4333 48.9874 12.1979 48.8604 12.225C48.7847 12.2427 48.7167 12.2842 48.6664 12.3435C48.6162 12.4027 48.5863 12.4766 48.5812 12.5541C48.5749 12.6791 48.5979 12.9229 48.7187 12.8958Z" fill="#003E75"/>
<path opacity="0.9" d="M50.7021 11.6333C50.7021 11.6145 50.7271 11.5791 50.7021 11.575C50.6863 11.5711 50.6698 11.5719 50.6546 11.5775C50.6393 11.5831 50.6261 11.5931 50.6166 11.6062C50.6062 11.625 50.5937 11.6666 50.6166 11.6708C50.6395 11.675 50.6958 11.6625 50.7021 11.6333Z" fill="#003E75"/>
<path opacity="0.9" d="M65.7979 21.1437C65.7729 20.9791 65.5708 20.8729 65.4729 20.7875C65.375 20.7021 65.1125 20.5541 65.0271 20.3916C64.9932 20.2858 64.9743 20.1757 64.9708 20.0646C64.9562 19.9687 64.8521 19.9125 64.7937 19.8562C64.7354 19.8 64.7542 19.6333 64.7208 19.5437C64.7208 19.4875 64.5375 19.2937 64.4937 19.3354C64.45 19.3771 64.5354 19.7417 64.5437 19.7917C64.5646 19.9292 64.6187 20.1 64.5208 20.2083C64.4146 20.4 63.9604 20.0104 63.9354 19.8542C63.9188 19.7375 63.8292 19.5187 63.7042 19.5479C63.5646 19.5333 63.4959 19.7333 63.4313 19.8521C63.3459 20.0062 63.3354 20.0604 63.2021 19.9417C63.0688 19.8229 63.0209 20.0292 62.9459 20.1646C62.8954 20.294 62.8917 20.4369 62.9355 20.5687C62.9605 20.7354 62.8688 20.8396 62.7938 20.9729C62.6605 21.2146 62.323 21.0229 62.1938 21.2541C62.1089 21.3568 62.0618 21.4855 62.0605 21.6187C62.0675 21.7868 62.0919 21.9536 62.1334 22.1166C62.1521 22.252 62.3209 22.2541 62.3417 22.3958C62.3709 22.5875 62.398 22.777 62.4271 22.9666C62.4279 23.0247 62.4418 23.0818 62.4678 23.1338C62.4938 23.1857 62.5311 23.2312 62.5771 23.2666C62.725 23.3937 62.7084 23.1937 62.8084 23.0916C62.8771 22.9687 63.0667 23.0729 63.1354 22.95C63.2209 22.8645 63.2313 22.6791 63.3438 22.652C63.4599 22.6073 63.5821 22.5799 63.7063 22.5708C63.8188 22.5458 63.9146 22.7562 64.0167 22.7958C64.1229 22.8895 64.2521 22.752 64.3063 22.652C64.3958 22.4916 64.4292 22.3083 64.5812 22.4437C64.7896 22.6145 64.6146 23.0958 64.7896 23.2541C64.8625 23.3166 64.9979 23.4937 65.0958 23.4625L65.5229 23.3666C65.6083 23.3479 65.7083 23.1708 65.7312 23.077C65.7916 22.9687 65.702 22.6791 65.6854 22.5645C65.6437 22.2833 65.9312 22.1479 65.8937 21.8812C65.8562 21.6146 65.8333 21.3916 65.7979 21.1437Z" fill="#003E75"/>
<path opacity="0.9" d="M47.4645 21.8958C47.404 21.8246 47.3339 21.7622 47.2562 21.7104L46.4228 20.9896C46.3628 20.9122 46.2806 20.8549 46.1871 20.8255C46.0937 20.7961 45.9935 20.7959 45.8999 20.825L45.0895 21.0041C44.8395 21.0625 44.6937 20.5875 44.4291 20.6437L43.5541 20.8375C43.5191 20.8425 43.4852 20.8538 43.4541 20.8708C43.3978 20.9083 43.3062 21.1562 43.2354 21.15C43.1645 21.1437 43.0645 21.0479 43.0083 21.0021L42.2124 20.3395C42.1416 20.2883 42.079 20.2265 42.027 20.1562C41.9624 20.0604 41.977 19.6166 41.8499 19.6437C41.6416 19.6916 41.2249 19.875 41.1541 19.4646C41.1083 19.1562 40.9666 18.7354 41.1999 18.4979C41.2854 18.4125 41.4333 18.4125 41.5354 18.3875C41.6833 18.3583 41.8291 18.325 41.9749 18.2916C42.1541 18.2521 42.5229 18.8437 42.5999 18.4271C42.627 18.2583 42.3916 18.125 42.327 18.0729C42.2131 17.9558 42.1495 17.7988 42.1499 17.6354C42.1083 17.3271 42.4083 17.0854 42.502 16.8291C42.5937 16.6625 42.4604 16.4646 42.502 16.2896C42.5481 16.168 42.609 16.0525 42.6833 15.9458L42.9604 15.4479C43.0426 15.3451 43.0867 15.217 43.0854 15.0854C43.0383 14.9318 43.0502 14.7661 43.1187 14.6208C43.2041 14.4687 43.2583 14.3625 43.4124 14.325C43.6958 14.2645 43.9499 14.2229 44.0541 13.8312C44.0755 13.6802 44.0619 13.5262 44.0145 13.3812C43.9937 13.2375 43.8479 13.15 43.7624 13.077L43.3645 12.7333C43.2833 12.6604 43.1854 12.5458 43.0729 12.5687L42.3333 12.7333C42.2104 12.7604 42.1249 12.9645 42.0708 13.0833C42.0089 13.2135 41.9977 13.362 42.0395 13.5C42.0645 13.6708 42.0874 13.8375 42.1124 14.0062C42.127 14.1083 41.9999 14.4771 41.8812 14.3791C41.8291 14.3646 41.7666 14.2812 41.7208 14.2458C41.5874 14.1333 41.4499 14.0208 41.3041 13.9104L40.5854 13.3187C40.5039 13.2165 40.4518 13.0941 40.4345 12.9646C40.4173 12.835 40.4356 12.7032 40.4874 12.5833C40.6208 12.3458 40.9041 12.025 40.852 11.7145C40.827 11.5645 40.827 11.3729 40.7187 11.277L40.3499 10.9583C40.1958 10.8229 40.2604 11.0979 40.277 11.2062C40.302 11.377 40.2333 11.6229 40.0687 11.6687C39.8336 11.7458 39.5914 11.7995 39.3458 11.8291L38.8895 11.9291C38.8012 11.9655 38.7043 11.9757 38.6104 11.9583C38.402 11.8687 38.2395 11.502 37.9979 11.5562L37.1166 11.75C37.0352 11.7615 36.9551 11.7804 36.877 11.8062C36.7104 11.8416 36.6916 12.127 36.55 12.2229C36.2416 12.4145 36.0354 12.1958 35.7937 11.9875C35.5958 11.8166 35.4166 11.9104 35.1916 11.9604L35.1208 11.975L35.702 13.927C35.8125 13.9 35.927 13.877 36.0395 13.852C36.2312 13.8104 36.3666 13.9895 36.5166 14.1208L37.3499 14.8458C37.4708 14.95 37.7104 15.0833 37.7374 15.2875C37.8416 15.9916 37.9458 16.7 38.052 17.4083C38.068 17.6318 38.1001 17.8539 38.1479 18.0729C38.1812 18.2979 38.5499 18.502 38.677 18.6145L39.4541 19.2896C39.5166 19.3396 39.5999 19.4437 39.6624 19.3291C39.7499 19.1708 39.7416 19.1062 39.6229 19L38.902 18.375C38.8145 18.3 38.902 18.0521 39.0041 18.0312C39.0708 18.0166 39.1729 18.1437 39.2229 18.1875L40.0333 18.8895C40.2062 19.0375 40.3854 19.1312 40.4249 19.4041C40.4749 19.7333 40.4624 20.0708 40.6958 20.2708L41.0395 20.5687C41.1479 20.6625 41.2937 20.5958 41.4124 20.5687C41.5312 20.5416 41.7604 20.4666 41.8458 20.5271C41.919 20.5822 41.9886 20.642 42.0541 20.7062C42.327 20.9396 42.527 21.1229 42.7999 21.3541L43.0499 21.5625C43.1624 21.6604 43.0187 21.8791 42.9666 21.9791C42.9145 22.0791 42.7583 22.2708 42.7854 22.425C42.7944 22.542 42.8118 22.6583 42.8374 22.7729C42.8895 23.1333 42.9437 23.4979 42.9979 23.8604C43.0312 24.1062 43.3874 24.3 43.5333 24.4271C43.6791 24.5541 43.9999 24.725 44.0333 24.9604L44.152 25.7708C44.252 26.4541 44.3604 27.1375 44.4541 27.8229C44.4537 27.9592 44.4059 28.091 44.3187 28.1958C44.2592 28.3068 44.2422 28.4357 44.2708 28.5583C44.3291 28.9375 44.3833 29.3166 44.4374 29.6979C44.4833 29.9937 44.7583 30.1354 44.9395 30.2916C45.0249 30.3687 45.1478 30.5 45.252 30.4812C45.3184 30.4724 45.384 30.4578 45.4478 30.4375C45.5312 30.4166 45.7562 30.4208 45.8208 30.3375C45.8853 30.2541 45.5708 30.0583 45.5437 30.0333C45.4437 29.9458 45.3353 29.8791 45.3124 29.7146C45.2791 29.4896 45.127 29.0104 45.2437 28.8C45.5548 28.2444 45.8659 27.6847 46.177 27.1208C46.3187 26.8625 46.0708 26.5375 46.2041 26.2875C46.3583 26.0125 46.5103 25.7354 46.6645 25.4541C46.7374 25.325 46.8541 25.3208 46.9687 25.2937C47.0461 25.298 47.1233 25.2806 47.1914 25.2434C47.2594 25.2062 47.3158 25.1508 47.3541 25.0833C47.4476 24.9717 47.4991 24.831 47.4999 24.6854C47.4791 24.5312 47.4541 24.3791 47.4333 24.2271C47.4062 24.0312 47.3749 23.8375 47.3478 23.6437C47.3082 23.5212 47.3082 23.3892 47.3478 23.2666L47.5687 22.8687C47.6416 22.7375 47.5812 22.5375 47.5687 22.3979C47.5647 22.2256 47.5294 22.0555 47.4645 21.8958Z" fill="#003E75"/>
<path opacity="0.9" d="M47.5875 10.302C47.5167 10.3187 47.3583 10.3145 47.3104 10.4C47.2528 10.4822 47.204 10.5701 47.1646 10.6625C47.1063 10.7687 47.0938 10.7979 47.1854 10.8708C47.2771 10.9437 47.575 11.0395 47.6709 10.8708C47.7479 10.7333 47.9313 10.5479 47.7896 10.425C47.7334 10.375 47.6625 10.2916 47.5875 10.302Z" fill="#003E75"/>
<path opacity="0.9" d="M52.9833 14.6666C53.0208 14.6229 53.025 14.6104 53.0208 14.5958C53.0166 14.5812 52.9999 14.5958 52.9812 14.5958C52.956 14.6119 52.9275 14.6219 52.8978 14.625C52.8868 14.6248 52.876 14.6279 52.8668 14.6338C52.8575 14.6398 52.8502 14.6483 52.8457 14.6583C52.8457 14.6687 52.8457 14.7104 52.877 14.7146C52.8974 14.7173 52.9182 14.7142 52.937 14.7058C52.9557 14.6973 52.9718 14.6837 52.9833 14.6666Z" fill="#003E75"/>
<path opacity="0.9" d="M60.2187 16.2771C60.352 16.4354 60.2854 16.6458 60.2541 16.8187C60.2372 16.9257 60.2593 17.0351 60.3166 17.1271C60.3423 17.1575 60.371 17.1854 60.402 17.2104L60.5604 17.3479C60.5905 17.3786 60.6277 17.4015 60.6687 17.4146C60.6895 17.4173 60.7107 17.4132 60.729 17.403C60.7474 17.3927 60.762 17.3769 60.7706 17.3577C60.7792 17.3386 60.7815 17.3172 60.777 17.2966C60.7725 17.2761 60.7616 17.2575 60.7458 17.2437C60.6425 17.1693 60.5463 17.0857 60.4583 16.9937C60.3958 16.9208 60.3874 16.5771 60.4583 16.5333C60.4723 16.5276 60.4877 16.5258 60.5027 16.528C60.5177 16.5302 60.5318 16.5363 60.5437 16.5458C60.6374 16.6291 60.7208 16.7354 60.8041 16.5771C60.8347 16.4696 60.8381 16.3563 60.8141 16.2472C60.7901 16.1381 60.7394 16.0367 60.6666 15.9521C60.5937 15.8604 60.3791 15.7937 60.4749 15.6271C60.5437 15.5021 60.6229 15.275 60.7562 15.2437C60.9854 15.1916 61.2229 15.2041 61.3624 14.9562C61.5312 14.6416 61.7041 14.3312 61.8791 14.0229C61.9791 13.8396 61.9728 13.3479 61.8083 13.2083L61.1437 12.6333C60.9999 12.5104 61.3978 11.8479 61.502 11.9354C61.5916 11.9645 61.7103 12.1104 61.7812 12.1791C61.852 12.2479 62.0208 12.4541 62.1187 12.4333C62.2166 12.4125 62.3458 12.1208 62.2541 12.0437C62.1624 11.9666 62.0145 11.8812 62.1145 11.6979C62.1733 11.5639 62.2429 11.435 62.3228 11.3125C62.4166 11.1458 62.6166 11.2479 62.7145 11.0729C62.8124 10.8979 63.0999 10.5458 63.0604 10.2812C63.0333 10.1062 63.0083 9.9291 62.9812 9.7541C62.9645 9.6166 62.9604 9.38329 62.8604 9.29369C62.7604 9.20409 62.6208 9.1479 62.5937 8.9666C62.5762 8.8828 62.5756 8.79619 62.5921 8.71209C62.6085 8.62809 62.6417 8.54809 62.6895 8.47699C62.7541 8.36449 62.827 8.15829 62.952 8.13119L63.3166 8.05199C63.5416 7.99999 63.9062 8.01449 64.0478 7.75619C64.1374 7.60199 64.1978 7.52909 64.3499 7.49579C64.502 7.46249 64.5687 7.47499 64.602 7.70409C64.6445 7.84649 64.6349 7.99939 64.5749 8.13539C64.5041 8.26039 64.3437 8.45619 64.3666 8.62499C64.39 8.92649 64.4353 9.22589 64.502 9.52079C64.5166 9.63329 64.6958 9.85829 64.777 9.70829C64.8583 9.55829 64.952 9.39579 65.0395 9.24159C65.0978 9.13119 65.2145 8.9854 65.1937 8.8395C65.1827 8.7099 65.1632 8.58119 65.1353 8.45409C65.1062 8.24579 65.0791 8.05619 65.0479 7.85829C65.005 7.73129 65.005 7.5937 65.0479 7.4666C65.1291 7.3208 65.1874 7.23749 65.3312 7.20409C65.4049 7.19569 65.478 7.18249 65.5499 7.16449L65.327 6.02079L63.9583 5.5375C63.9245 5.531 63.8899 5.531 63.8562 5.5375L63.1249 5.70829L62.102 5.93749C61.934 5.99269 61.7609 6.03099 61.5853 6.05199C61.3353 6.11039 61.1812 5.61449 60.9208 5.67289L60.0624 5.86659C59.877 5.90619 59.6229 6.03749 59.452 5.89369L59.0853 5.58539C58.9937 5.50829 58.8624 5.34999 58.7416 5.37699C58.502 5.37699 57.4562 5.57289 57.3499 5.76449L56.4749 7.33749C56.3624 7.54579 55.927 7.54579 55.7541 7.57499C55.6416 7.59999 55.5291 7.62289 55.4166 7.64999C55.3041 7.67699 55.2354 7.83949 55.1729 7.95409C55.1126 8.08469 55.043 8.21069 54.9645 8.33119C54.8979 8.44999 54.7333 8.4541 54.6291 8.475L54.1416 8.58329C54.0374 8.60829 53.877 8.60829 53.8104 8.72909C53.6187 8.96039 53.602 9.24579 53.3166 9.31249L52.8791 9.4104C52.7374 9.4416 52.6374 9.3166 52.5249 9.2229C52.4749 9.1791 52.3749 9.11449 52.427 9.01449C52.4391 8.97849 52.4593 8.94569 52.486 8.91859C52.5128 8.89149 52.5453 8.87089 52.5812 8.85829C52.6208 8.84159 52.8333 8.84369 52.7729 8.73119C52.7242 8.66939 52.6658 8.61599 52.5999 8.57289C52.4979 8.48539 52.3916 8.36449 52.2666 8.39789C52.1416 8.43119 51.9249 8.52699 51.8124 8.42699C51.6999 8.36449 51.6437 8.23119 51.5041 8.26039L51.0499 8.36449C50.8333 8.41659 50.7583 8.62499 50.6416 8.83329C50.4499 9.17289 50.2624 9.51249 50.0749 9.85409C50.0046 9.94669 49.9539 10.0527 49.926 10.1655C49.8981 10.2783 49.8934 10.3957 49.9124 10.5104C49.9374 10.6708 49.9624 10.8354 49.9854 11C50.002 11.1125 50.1937 11.3312 50.2874 11.3062C50.3356 11.2904 50.3851 11.2792 50.4354 11.2729C50.5291 11.2895 50.5583 11.3604 50.6437 11.3645C50.7145 11.3668 50.785 11.3532 50.8498 11.3247C50.9147 11.2963 50.9724 11.2536 51.0187 11.2C51.1055 11.0796 51.1428 10.9304 51.1229 10.7833C51.102 10.625 50.9354 10.452 50.9354 10.2937C50.9354 10.1354 51.0562 9.9541 51.1208 9.8395C51.202 9.6895 51.3937 9.49999 51.5604 9.52079C51.7687 9.54999 51.8562 9.67909 51.7562 9.87499C51.6395 10.102 51.3124 10.1229 51.3145 10.5833C51.3145 10.7916 51.4937 10.7916 51.6374 10.7916C51.827 10.7916 51.8458 10.8729 51.8249 11.0854C51.8046 11.1716 51.7639 11.2516 51.7062 11.3187C51.6145 11.4291 51.4645 11.3791 51.352 11.4687C51.2395 11.5583 51.352 11.627 51.2187 11.7166C51.1604 11.751 51.096 11.7736 51.0291 11.7833C50.9479 11.802 50.8208 11.8166 50.6874 11.8416H50.6624C50.617 11.8385 50.5742 11.8193 50.5416 11.7875C50.5371 11.7807 50.5347 11.7727 50.5347 11.7645C50.5347 11.7564 50.5371 11.7484 50.5416 11.7416C50.5522 11.7185 50.5592 11.6939 50.5624 11.6687C50.5791 11.5583 50.4312 11.4333 50.3854 11.477C50.3395 11.5208 50.2854 11.6208 50.3187 11.6854C50.352 11.75 50.4249 11.7979 50.4437 11.852C50.4459 11.8583 50.4468 11.865 50.4463 11.8717C50.4458 11.8783 50.444 11.8848 50.4408 11.8907C50.4377 11.8965 50.4334 11.9017 50.4281 11.9058C50.4229 11.9099 50.4168 11.9129 50.4104 11.9145C50.3089 11.9403 50.2214 12.0045 50.1666 12.0937C49.9874 12.4125 50.1333 12.6645 49.8583 13.0187C49.8062 13.0875 49.7874 13.1791 49.7249 13.2625C49.6395 13.4145 49.7458 13.6145 49.7458 13.775C49.8187 14.275 49.2395 14.025 49.1208 14.25C49.0817 14.2987 49.0551 14.3563 49.0435 14.4177C49.0319 14.4791 49.0355 14.5424 49.0541 14.6021C49.0541 14.6791 49.0791 15.052 49.1354 15.0875C49.2395 15.1583 49.2916 15.2562 49.4124 15.2291C49.5333 15.202 49.7083 15.2104 49.7812 15.0771C49.8262 15.0138 49.86 14.9434 49.8812 14.8687C49.8958 14.7812 49.8374 14.6958 49.8812 14.6104C49.9604 14.4715 50.0395 14.3326 50.1187 14.1937C50.2062 14.0333 50.3624 14.1062 50.4708 13.9854C50.5791 13.8645 50.5895 13.6729 50.7416 13.802L51.1145 14.125C51.1883 14.216 51.2416 14.3219 51.2708 14.4354C51.2916 14.4937 51.2708 14.6916 51.3229 14.7062C51.3749 14.7208 51.4395 14.4979 51.4562 14.477C51.4979 14.402 51.4562 14.2458 51.4916 14.2062C51.527 14.1666 51.602 14.2062 51.5854 14.1062C51.5854 14.0833 51.477 13.9937 51.477 13.9916C51.477 13.9895 51.1937 13.7458 51.1791 13.7333C51.1062 13.6687 50.8895 13.5541 50.9708 13.4083C51.0791 13.2104 51.1499 13.302 51.2812 13.4083C51.4124 13.5145 51.5166 13.6166 51.6333 13.7145C51.6886 13.7675 51.7304 13.833 51.755 13.9056C51.7797 13.9781 51.7865 14.0555 51.7749 14.1312C51.7562 14.2666 51.9687 14.5479 52.0749 14.4812C52.1812 14.4145 52.0583 14.0979 52.177 14C52.2562 13.9395 52.4291 13.8833 52.402 13.7062C52.3838 13.6441 52.3774 13.579 52.3833 13.5145C52.4022 13.4504 52.4318 13.3898 52.4708 13.3354C52.5166 13.2562 52.6145 12.9833 52.6791 12.9458C52.7437 12.9083 52.9395 13.1541 53.0395 12.9708C53.0854 12.8979 53.1312 12.7437 53.2812 12.7104C53.4312 12.677 53.4895 12.7312 53.6124 12.8395C53.702 12.9187 53.8208 12.9833 53.8479 13.1291C53.8749 13.275 53.9041 13.5458 53.7395 13.5729C53.6209 13.619 53.4958 13.6464 53.3687 13.6541C53.2437 13.6812 53.1833 13.4791 53.0624 13.5062C52.9416 13.5333 52.8291 13.5062 52.7874 13.6354C52.7041 13.8895 52.5791 13.9208 52.4854 14.0791C52.4354 14.1708 52.402 14.4375 52.4749 14.4958C52.6062 14.6083 52.8041 14.5145 52.952 14.4812C53.3041 14.402 53.4729 14.8437 53.4229 15.1208C53.3916 15.2979 52.8458 15.3958 52.7312 15.3479C52.6166 15.3 52.5458 15.1687 52.3895 15.2062C52.2687 15.2333 52.0687 15.2291 51.9895 15.3729C51.9104 15.5166 51.852 15.6833 51.727 15.7104C51.602 15.7375 51.402 15.8333 51.2937 15.7375C51.185 15.6588 51.0833 15.5709 50.9895 15.475C50.852 15.3562 50.9166 15.1291 50.7812 15.0104C50.6458 14.8916 50.5458 14.975 50.427 15.0104C50.3083 15.0458 50.1166 15.0333 50.0104 15.1354C49.9041 15.2375 49.8791 15.4104 49.7833 15.5083C49.6874 15.6062 49.4874 15.6083 49.3666 15.6354C49.1583 15.6812 48.9499 16.1458 48.9854 16.3833C49.0395 16.7458 48.8666 16.9396 48.7083 17.2166C48.5979 17.425 48.3479 17.7146 48.3874 17.9791C48.4354 18.3166 48.4854 18.65 48.5354 18.9875C48.5687 19.225 48.9312 19.425 49.0708 19.5479C49.2104 19.6708 49.3291 19.7687 49.4562 19.8812C49.5395 19.9521 49.6333 20.0646 49.7395 20.0437C49.9479 20.0437 50.2958 19.9791 50.4166 19.7625C50.4958 19.6166 50.5499 19.4958 50.6999 19.4625C50.8499 19.4291 50.9937 19.3562 51.1166 19.4625C51.3249 19.6437 51.4791 19.7396 51.5208 20.0479C51.5791 20.4396 51.6374 20.8271 51.6937 21.2208C51.7208 21.4083 51.7208 21.9041 51.8708 22.0312C51.9499 22.1312 52.0791 22.1729 52.1479 22.2833C52.1945 22.3877 52.22 22.5003 52.2229 22.6146C52.2812 23.0125 52.3416 23.4146 52.3999 23.8125C52.401 23.9262 52.4273 24.0384 52.477 24.1407C52.5267 24.243 52.5986 24.333 52.6874 24.4041C52.8645 24.5562 53.0916 24.8604 53.3124 24.8083L54.1687 24.6166C54.377 24.5687 54.5249 24.1521 54.6395 23.9458C54.6861 23.8303 54.6912 23.7022 54.6541 23.5833C54.6249 23.375 54.5937 23.1666 54.5645 22.9583C54.5187 22.6521 54.7541 22.3791 54.8854 22.1375C54.968 22.038 55.013 21.9126 55.0124 21.7833C54.9854 21.6062 54.9624 21.4271 54.9333 21.2521C54.936 21.1195 54.8901 20.9905 54.8041 20.8896C54.7363 20.8495 54.6776 20.7956 54.632 20.7313C54.5865 20.667 54.5549 20.5939 54.5395 20.5166C54.4927 20.371 54.4927 20.2143 54.5395 20.0687C54.627 19.9104 54.7145 19.7521 54.8041 19.5958C54.8708 19.4729 54.9333 19.2979 55.0624 19.2708C55.1916 19.2437 55.2958 18.9958 55.3708 18.8541C55.4723 18.7267 55.5248 18.567 55.5187 18.4041C55.5062 18.3375 55.4812 17.8729 55.4208 17.8541C55.3604 17.8354 55.2124 18.1979 55.1833 18.2458C55.0958 18.4041 54.9749 18.4062 54.8312 18.4375C54.6062 18.4896 54.302 18.0979 54.1312 17.9479C54.052 17.8771 53.9437 17.8104 53.9229 17.6771C53.8979 17.5041 53.8708 17.3312 53.8458 17.1583C53.8062 16.8875 53.4083 16.675 53.2458 16.5333C53.159 16.4369 53.1128 16.3108 53.1166 16.1812C53.0937 16.0312 53.0104 15.7646 53.0874 15.6187C53.1624 15.4333 53.3124 15.4812 53.3812 15.6541C53.4315 15.8285 53.4608 16.0082 53.4687 16.1896C53.5187 16.5208 53.7999 16.5687 53.9708 16.7854C54.1895 16.9729 54.0083 17.4875 54.2333 17.6791C54.3232 17.7817 54.4287 17.8696 54.5458 17.9396C54.6881 17.9703 54.8368 17.9465 54.9624 17.8729C55.0422 17.7992 55.1036 17.7079 55.1416 17.6062C55.2416 17.4271 55.3499 17.2479 55.4437 17.0687C55.5833 16.8146 55.777 16.5875 55.677 16.2604C55.6124 15.8333 55.1687 16.1083 54.9812 15.9458L54.6124 15.6271C54.5708 15.5875 54.4999 15.5333 54.5458 15.452C54.5916 15.3708 54.6583 15.2437 54.7249 15.2958C54.7916 15.3479 54.9437 15.4854 55.027 15.5583C55.1104 15.6312 55.3145 15.5583 55.4312 15.5416C55.5479 15.525 55.6958 15.4479 55.802 15.5416C55.8511 15.5855 55.9115 15.6146 55.9764 15.6256C56.0412 15.6367 56.1079 15.6292 56.1687 15.6041L56.5729 15.5125C56.6999 15.4854 56.8374 15.6541 56.9354 15.7375C57.0333 15.8208 57.1437 15.8833 57.1624 16.0354C57.1895 16.2229 57.2166 16.4146 57.2437 16.6062C57.2666 16.7312 57.2687 16.8708 57.3624 16.95L57.7333 17.2708C57.8437 17.3646 57.9104 17.4416 58.0041 17.2708C58.0799 17.1074 58.0918 16.9216 58.0374 16.75C57.9916 16.4437 58.2687 16.125 58.3999 15.8854C58.4472 15.7719 58.5095 15.6654 58.5854 15.5687C58.6457 15.5164 58.7197 15.4824 58.7988 15.471C58.8778 15.4595 58.9585 15.471 59.0312 15.5041C59.1444 15.5834 59.2491 15.6742 59.3437 15.775C59.3776 15.8095 59.4145 15.8409 59.4541 15.8687C59.5541 15.9333 59.6062 15.8812 59.6916 15.8854C59.8108 15.9071 59.9193 15.9679 59.9999 16.0583C60.0854 16.1541 60.2187 16.2771 60.2187 16.2771Z" fill="#003E75"/>
</g>
<g style="mix-blend-mode:multiply">
<g style="mix-blend-mode:multiply">
<path d="M52.1311 1.33121L34.5249 9.8833L46.879 16.0104L65.3332 6.025L52.1311 1.33121Z" fill="#D9D9D9"/>
</g>
</g>
<g style="mix-blend-mode:multiply">
<g style="mix-blend-mode:multiply">
<path d="M69.0645 25.1333L52.0478 35.9541L46.8791 16.0104L65.3332 6.02499L69.0645 25.1333Z" fill="#ECECEC"/>
</g>
</g>
<g style="mix-blend-mode:multiply">
<g style="mix-blend-mode:multiply">
<path d="M39.9665 28.1958L34.5249 9.8833L46.879 16.0104L52.0478 35.9541L39.9665 28.1958Z" fill="#9C9B9B"/>
</g>
</g>
<path d="M5.45608 77.6479L9.12278 73.9541H10.4166L6.38738 77.9708L10.5541 82.5687H9.23738L5.69988 78.625L5.45608 78.8708V82.5771H4.49988V73.9541H5.45608V77.6479Z" fill="#003E75"/>
<path d="M10.804 78.2688C10.7991 77.3814 11.0577 76.5125 11.5471 75.7723C12.0365 75.0321 12.7346 74.4538 13.553 74.1108C14.3714 73.7678 15.2732 73.6755 16.1441 73.8456C17.015 74.0156 17.8159 74.4405 18.4451 75.0662C19.0743 75.6919 19.5036 76.4903 19.6785 77.3603C19.8535 78.2302 19.7662 79.1325 19.4278 79.9528C19.0894 80.7731 18.515 81.4745 17.7775 81.968C17.0401 82.4616 16.1727 82.725 15.2853 82.725C14.6958 82.7363 14.1101 82.6289 13.563 82.4092C13.0159 82.1895 12.5185 81.8621 12.1005 81.4464C11.6824 81.0307 11.3522 80.5351 11.1295 79.9893C10.9068 79.4434 10.7961 78.8583 10.804 78.2688ZM11.7853 78.2688C11.7956 78.9587 12.0095 79.6302 12.4003 80.1989C12.7911 80.7676 13.3412 81.208 13.9816 81.465C14.622 81.7219 15.324 81.7838 15.9995 81.643C16.675 81.5021 17.2937 81.1647 17.778 80.6732C18.2623 80.1817 18.5905 79.558 18.7214 78.8806C18.8523 78.2031 18.78 77.502 18.5136 76.8655C18.2472 76.229 17.7987 75.6854 17.2243 75.3031C16.6499 74.9208 15.9753 74.7167 15.2853 74.7167C14.8218 74.7186 14.3633 74.8121 13.9361 74.9919C13.5089 75.1718 13.1215 75.4343 12.7962 75.7644C12.4709 76.0946 12.2141 76.4858 12.0406 76.9156C11.8671 77.3454 11.7804 77.8053 11.7853 78.2688Z" fill="#003E75"/>
<path d="M21.627 82.5687V73.5937L28.3436 80.6312V73.9541H29.2999V82.9562L22.5832 75.9166V82.5666L21.627 82.5687Z" fill="#003E75"/>
<path d="M33.4458 78.8625L30.625 73.9541H31.7354L33.9312 77.8041L36.1542 73.9541H37.2646L34.4104 78.8625V82.5687H33.4542L33.4458 78.8625Z" fill="#003E75"/>
<path d="M43.6375 73.9541V82.5687H42.6812V73.9541H43.6375Z" fill="#003E75"/>
<path d="M49.8103 75.6604C49.6871 75.4136 49.5157 75.194 49.3062 75.0145C49.026 74.809 48.6846 74.7041 48.3374 74.7166C47.4853 74.7166 46.8916 75.2458 46.8916 76.0458C46.8825 76.1874 46.907 76.3292 46.9631 76.4595C47.0192 76.5899 47.1054 76.7051 47.2145 76.7958C47.4794 77.0318 47.786 77.2162 48.1187 77.3395L48.952 77.6999C49.4423 77.8854 49.8933 78.1618 50.2811 78.5145C50.489 78.7166 50.652 78.9602 50.7597 79.2293C50.8674 79.4985 50.9173 79.7873 50.9061 80.077C50.9061 81.6645 49.7311 82.7249 48.1812 82.7249C47.8378 82.7399 47.495 82.6859 47.1729 82.566C46.8509 82.4461 46.5561 82.2628 46.3062 82.027C45.9012 81.6039 45.6233 81.0755 45.5041 80.502L46.4353 80.2437C46.4917 80.6537 46.6719 81.0368 46.952 81.3416C47.1139 81.5033 47.3078 81.6294 47.5213 81.7119C47.7347 81.7944 47.963 81.8315 48.1916 81.8208C49.3666 81.8208 49.9228 80.9874 49.9228 80.1145C49.9315 79.9265 49.8987 79.7388 49.8267 79.5649C49.7547 79.391 49.6453 79.2351 49.5061 79.1083C49.1932 78.8555 48.8414 78.655 48.4645 78.5145L47.6895 78.152C47.2667 77.9859 46.8772 77.7453 46.5395 77.4416C46.343 77.265 46.188 77.0472 46.0853 76.8038C45.9827 76.5603 45.935 76.2973 45.9458 76.0333C45.9458 74.7041 46.9666 73.8125 48.3624 73.8125C48.852 73.7938 49.3352 73.9293 49.7436 74.2C50.0956 74.4456 50.3818 74.774 50.577 75.1562L49.8103 75.6604Z" fill="#003E75"/>
<path d="M60.0541 82.5687V73.5937L66.7687 80.6312V73.9541H67.725V82.9562L61.0083 75.9166V82.5666L60.0541 82.5687Z" fill="#003E75"/>
<path d="M69.5833 78.2687C69.5779 77.3808 69.8363 76.5112 70.3258 75.7704C70.8153 75.0295 71.5137 74.4506 72.3326 74.1072C73.1514 73.7638 74.0538 73.6712 74.9254 73.8413C75.7969 74.0114 76.5983 74.4365 77.2279 75.0626C77.8575 75.6887 78.2871 76.4877 78.462 77.3583C78.637 78.2288 78.5495 79.1317 78.2107 79.9525C77.8718 80.7732 77.2969 81.4749 76.5587 81.9685C75.8206 82.4621 74.9525 82.7254 74.0646 82.725C73.4751 82.7362 72.8894 82.6288 72.3423 82.4091C71.7952 82.1895 71.2978 81.8621 70.8797 81.4463C70.4617 81.0306 70.1315 80.5351 69.9088 79.9892C69.686 79.4433 69.5754 78.8582 69.5833 78.2687ZM70.5645 78.2687C70.5744 78.9593 70.7882 79.6314 71.1791 80.2008C71.5699 80.7701 72.1204 81.2112 72.7612 81.4686C73.4021 81.7259 74.1047 81.7881 74.7808 81.6472C75.4568 81.5063 76.0762 81.1686 76.5609 80.6767C77.0456 80.1848 77.374 79.5606 77.5049 78.8825C77.6358 78.2044 77.5633 77.5028 77.2965 76.8658C77.0297 76.2288 76.5806 75.6849 76.0055 75.3025C75.4304 74.9201 74.7552 74.7163 74.0646 74.7166C73.6013 74.7191 73.1431 74.813 72.7163 74.9931C72.2895 75.1731 71.9025 75.4357 71.5774 75.7658C71.2524 76.0958 70.9958 76.4869 70.8223 76.9164C70.6488 77.3459 70.562 77.8055 70.5666 78.2687H70.5645Z" fill="#003E75"/>
<path d="M80.1895 73.9541L82.4645 80.4125L85.162 73.5146L87.721 80.4125L90.24 73.9541H91.298L87.681 83.0208L85.15 76.125L82.4416 83.0208L79.1354 73.9541H80.1895Z" fill="#003E75"/>
<path d="M102.252 73.9541C103.117 73.9541 103.84 74.0583 104.421 74.5625C104.678 74.7949 104.881 75.0803 105.017 75.399C105.153 75.7176 105.218 76.062 105.208 76.4083C105.208 77.6229 104.448 78.825 102.483 78.825H101.65V82.575H100.696V73.9541H102.252ZM101.644 77.9125H102.431C103.569 77.9125 104.254 77.3437 104.254 76.3479C104.254 74.9791 102.975 74.85 102.354 74.85H101.644V77.9125Z" fill="#003E75"/>
<path d="M110.762 80.1417H107.096L106.054 82.5687H105L108.958 73.5417L112.819 82.5687H111.771L110.762 80.1417ZM110.389 79.2375L108.931 75.7896L107.46 79.2375H110.389Z" fill="#003E75"/>
<path d="M115.529 73.9541C116.11 73.9541 116.987 73.9937 117.623 74.4333C117.925 74.6492 118.17 74.9367 118.334 75.27C118.498 75.6034 118.578 75.9723 118.565 76.3437C118.565 77.6625 117.7 78.6354 116.396 78.7208L119.133 82.5687H117.971L115.348 78.7979H115.104V82.5687H114.148V73.9541H115.529ZM115.113 77.9458H115.719C116.908 77.9458 117.617 77.377 117.617 76.3708C117.635 76.1166 117.58 75.8624 117.459 75.6381C117.338 75.4138 117.156 75.2286 116.933 75.1041C116.545 74.9142 116.114 74.8294 115.683 74.8583H115.104L115.113 77.9458Z" fill="#003E75"/>
<path d="M122.854 74.8583V82.5666H121.898V74.8583H119.814V73.9541H124.954V74.8583H122.854Z" fill="#003E75"/>
<path d="M133.56 78.2687C133.555 77.3809 133.813 76.5114 134.303 75.7706C134.792 75.0297 135.49 74.4509 136.309 74.1074C137.128 73.7639 138.03 73.6713 138.902 73.8412C139.773 74.0111 140.575 74.4359 141.204 75.0619C141.834 75.6878 142.264 76.4866 142.439 77.357C142.614 78.2274 142.527 79.1302 142.188 79.951C141.85 80.7718 141.275 81.4736 140.537 81.9675C139.799 82.4613 138.932 82.725 138.044 82.725C137.454 82.7365 136.868 82.6293 136.321 82.4098C135.773 82.1902 135.276 81.8629 134.857 81.4471C134.439 81.0314 134.109 80.5357 133.886 79.9897C133.663 79.4437 133.552 78.8584 133.56 78.2687ZM134.544 78.2687C134.554 78.9587 134.768 79.6301 135.159 80.1988C135.549 80.7675 136.1 81.208 136.74 81.4649C137.38 81.7219 138.082 81.7838 138.758 81.6429C139.433 81.5021 140.052 81.1647 140.536 80.6732C141.021 80.1817 141.349 79.558 141.48 78.8805C141.611 78.2031 141.538 77.502 141.272 76.8655C141.006 76.229 140.557 75.6854 139.983 75.3031C139.408 74.9207 138.734 74.7167 138.044 74.7166C137.58 74.7185 137.122 74.8121 136.694 74.9919C136.267 75.1717 135.88 75.4343 135.555 75.7644C135.229 76.0946 134.972 76.4858 134.799 76.9156C134.625 77.3454 134.539 77.8053 134.544 78.2687Z" fill="#003E75"/>
<path d="M148.312 74.8583H145.342V77.4021H148.208V78.3062H145.342V82.5687H144.385V73.9541H148.312V74.8583Z" fill="#003E75"/>
<path d="M160.194 74.8583V82.5666H159.239V74.8583H157.146V73.9541H162.292V74.8583H160.194Z" fill="#003E75"/>
<path d="M167.916 74.8583H164.412V77.4166H167.821V78.3208H164.412V81.6541H167.916V82.5583H163.456V73.9541H167.916V74.8583Z" fill="#003E75"/>
<path d="M169.177 82.5687L170.612 73.4771L173.919 80.7479L177.289 73.4562L178.633 82.5604H177.65L176.837 76.5687L173.906 82.9229L171.012 76.5687L170.16 82.5604L169.177 82.5687Z" fill="#003E75"/>
<path d="M184.919 74.8583H181.406V77.4166H184.817V78.3208H181.406V81.6541H184.919V82.5583H180.45V73.9541H184.919V74.8583Z" fill="#003E75"/>
<path d="M186.617 82.5687V73.5937L193.333 80.6312V73.9541H194.289V82.9562L187.573 75.9166V82.5666L186.617 82.5687Z" fill="#003E75"/>
<path d="M195.994 78.2688C195.989 77.3814 196.247 76.5125 196.737 75.7723C197.226 75.0321 197.924 74.4538 198.743 74.1108C199.561 73.7678 200.463 73.6755 201.334 73.8456C202.205 74.0156 203.006 74.4405 203.635 75.0662C204.264 75.6919 204.693 76.4903 204.868 77.3603C205.043 78.2302 204.956 79.1325 204.617 79.9528C204.279 80.7731 203.705 81.4745 202.967 81.968C202.23 82.4616 201.362 82.725 200.475 82.725C199.885 82.7363 199.3 82.6289 198.753 82.4092C198.205 82.1895 197.708 81.8621 197.29 81.4464C196.872 81.0307 196.542 80.5351 196.319 79.9893C196.096 79.4434 195.986 78.8583 195.994 78.2688ZM196.975 78.2688C196.985 78.9587 197.199 79.6302 197.59 80.1989C197.981 80.7676 198.531 81.208 199.171 81.465C199.812 81.7219 200.514 81.7838 201.189 81.643C201.865 81.5021 202.483 81.1647 202.968 80.6732C203.452 80.1817 203.78 79.558 203.911 78.8806C204.042 78.2031 203.97 77.502 203.703 76.8655C203.437 76.229 202.988 75.6854 202.414 75.3031C201.84 74.9208 201.165 74.7167 200.475 74.7167C200.011 74.7186 199.553 74.8121 199.126 74.9919C198.698 75.1718 198.311 75.4343 197.986 75.7644C197.66 76.0946 197.404 76.4858 197.23 76.9156C197.057 77.3454 196.97 77.8053 196.975 78.2688Z" fill="#003E75"/>
<path d="M210.285 75.6604C210.162 75.414 209.992 75.1945 209.783 75.0145C209.503 74.8098 209.162 74.7049 208.815 74.7166C207.96 74.7166 207.356 75.2458 207.356 76.0458C207.348 76.1873 207.372 76.3289 207.428 76.4592C207.484 76.5895 207.57 76.7048 207.679 76.7958C207.944 77.0318 208.251 77.2162 208.583 77.3395L209.417 77.6999C209.907 77.8854 210.358 78.1618 210.746 78.5145C210.954 78.7166 211.117 78.9602 211.224 79.2294C211.332 79.4985 211.382 79.7873 211.371 80.077C211.371 81.6645 210.196 82.725 208.646 82.725C208.302 82.74 207.96 82.6859 207.637 82.566C207.315 82.4462 207.021 82.2629 206.771 82.027C206.365 81.6045 206.088 81.0757 205.971 80.502L206.9 80.2437C206.956 80.6538 207.137 81.0368 207.417 81.3416C207.58 81.5046 207.775 81.6315 207.991 81.714C208.206 81.7966 208.436 81.833 208.667 81.8208C209.842 81.8208 210.398 80.9875 210.398 80.1145C210.407 79.9265 210.374 79.7388 210.302 79.5649C210.23 79.391 210.12 79.2351 209.981 79.1083C209.668 78.8555 209.316 78.655 208.939 78.5145L208.164 78.152C207.742 77.9859 207.354 77.7453 207.017 77.4416C206.82 77.2654 206.664 77.0477 206.561 76.8042C206.458 76.5607 206.41 76.2974 206.421 76.0333C206.421 74.7041 207.442 73.8124 208.837 73.8124C209.327 73.7935 209.81 73.9291 210.219 74.1999C210.571 74.4456 210.857 74.774 211.052 75.1562L210.285 75.6604Z" fill="#003E75"/>
</svg>
