<?xml version="1.0" encoding="UTF-8"?>
<svg width="37px" height="37px" viewBox="0 0 37 37" version="1.1" xmlns="http://www.w3.org/2000/svg" xmlns:xlink="http://www.w3.org/1999/xlink">
    <!-- Generator: Sketch 52.1 (67048) - http://www.bohemiancoding.com/sketch -->
    <title>linkedin</title>
    <desc>Created with Sketch.</desc>
    <g id="Symbols" stroke="none" stroke-width="1" fill="none" fill-rule="evenodd">
        <g id="footer" transform="translate(-679.000000, -42.000000)">
            <g id="social">
                <g transform="translate(588.000000, 43.000000)">
                    <g id="linkedin" transform="translate(92.000000, 0.000000)">
                        <circle id="Oval-Copy" stroke-opacity="0.251528533" stroke="#646E83" fill-opacity="0.504585598" fill="#FFFFFF" cx="17.5" cy="17.5" r="17.5"></circle>
                        <g id="in" transform="translate(11.000000, 11.000000)" fill="#646E83" fill-rule="nonzero">
                            <path d="M13.9713179,8.2032529 L13.9713179,13.3685383 L10.9768121,13.3685383 L10.9768121,8.54919258 C10.9768121,7.33853364 10.5436891,6.51230626 9.45977726,6.51230626 C8.63234803,6.51230626 8.13994432,7.06912297 7.92331787,7.60774942 C7.84432019,7.80030626 7.82398608,8.06832019 7.82398608,8.33786079 L7.82398608,13.3685383 L4.82847332,13.3685383 C4.82847332,13.3685383 4.86881671,5.20614849 4.82847332,4.36046404 L7.82369374,4.36046404 L7.82369374,5.63732251 C7.81761949,5.64687239 7.80972622,5.65716937 7.80400928,5.66642691 L7.82369374,5.66642691 L7.82369374,5.63732251 C8.22163805,5.02440835 8.93232483,4.14883991 10.5230626,4.14883991 C12.4938794,4.14880742 13.9713179,5.43632019 13.9713179,8.2032529 Z M1.69503944,0.01812529 C0.670278422,0.01812529 0,0.690287703 0,1.57420418 C0,2.43885847 0.650886311,3.13141995 1.65528074,3.13141995 L1.67529002,3.13141995 C2.71989791,3.13141995 3.36954988,2.4389884 3.36954988,1.57420418 C3.34986543,0.690287703 2.71989791,0.01812529 1.69503944,0.01812529 Z M0.177907193,13.3685383 L3.17228306,13.3685383 L3.17228306,4.36046404 L0.177907193,4.36046404 L0.177907193,13.3685383 Z" id="LinkedIn"></path>
                        </g>
                    </g>
                </g>
            </g>
        </g>
    </g>
</svg>