<?xml version="1.0" encoding="utf-8"?>
<!-- Generator: Adobe Illustrator 24.1.0, SVG Export Plug-In . SVG Version: 6.00 Build 0)  -->
<svg version="1.1" id="Layer_1" xmlns="http://www.w3.org/2000/svg" xmlns:xlink="http://www.w3.org/1999/xlink" x="0px" y="0px"
	 viewBox="0 0 40 40" style="enable-background:new 0 0 40 40;" xml:space="preserve">
<style type="text/css">
	.st0{fill-rule:evenodd;clip-rule:evenodd;fill:#020203;}
	.st1{fill-rule:evenodd;clip-rule:evenodd;fill:#153F71;}
	.st2{fill:#FFFFFF;}
</style>
<g id="Page-1">
	<g id="_x30_1" transform="translate(-756.000000, -167.000000)">
		<g id="banner" transform="translate(154.000000, 117.000000)">
			<g id="search" transform="translate(3.000000, 45.000000)">
				<g id="Group-2" transform="translate(605.444514, 9.444444)">
					<g id="Oval">
						<g>
							<circle id="path-1" class="st0" cx="13.56" cy="15.56" r="20"/>
						</g>
						<g>
							<circle id="path-1_1_" class="st1" cx="13.56" cy="15.56" r="20"/>
						</g>
					</g>
					<path id="Shape" class="st2" d="M12.63,21.25c1.58,0,3.04-0.56,4.18-1.5l2.99,2.99c0.14,0.14,0.31,0.2,0.48,0.2
						s0.34-0.07,0.48-0.2c0.27-0.27,0.27-0.7,0-0.97l-2.99-2.97c0.93-1.14,1.5-2.6,1.5-4.18c0-3.65-2.97-6.63-6.63-6.63
						S6,10.97,6,14.63S8.97,21.25,12.63,21.25L12.63,21.25z M12.68,9.72c2.73,0,4.95,2.22,4.95,4.95s-2.22,4.95-4.95,4.95
						s-4.95-2.22-4.95-4.95S9.94,9.72,12.68,9.72z"/>
				</g>
			</g>
		</g>
	</g>
</g>
</svg>
