<?xml version="1.0" encoding="UTF-8"?>
<svg width="37px" height="37px" viewBox="0 0 37 37" version="1.1" xmlns="http://www.w3.org/2000/svg" xmlns:xlink="http://www.w3.org/1999/xlink">
    <!-- Generator: Sketch 52.1 (67048) - http://www.bohemiancoding.com/sketch -->
    <title>twitter</title>
    <desc>Created with Sketch.</desc>
    <g id="Symbols" stroke="none" stroke-width="1" fill="none" fill-rule="evenodd">
        <g id="footer" transform="translate(-725.000000, -42.000000)">
            <g id="social">
                <g transform="translate(588.000000, 43.000000)">
                    <g id="twitter" transform="translate(138.000000, 0.000000)">
                        <circle id="Oval-Copy-2" stroke-opacity="0.251528533" stroke="#646E83" fill-opacity="0.504585598" fill="#FFFFFF" cx="17.5" cy="17.5" r="17.5"></circle>
                        <g id="tw_v2" transform="translate(13.000000, 11.000000)" fill="#646E83" fill-rule="nonzero">
                            <path d="M8.27367647,9.92588235 L5.00794118,9.92588235 C4.55397059,9.92588235 4.16794118,9.76705882 3.85073529,9.44794118 C3.53205882,9.12852941 3.37455882,8.7425 3.37455882,8.28647059 L3.37455882,7.12411765 L8.02794118,7.12411765 C8.44764706,7.12411765 8.80911765,6.97338235 9.10941176,6.67382353 C9.40955882,6.37176471 9.56029412,6.01073529 9.56029412,5.59058824 C9.56029412,5.16897059 9.40955882,4.80838235 9.10852941,4.50735294 C8.80720588,4.20705882 8.44455882,4.05647059 8.02308824,4.05647059 L3.37441176,4.05647059 L3.37441176,1.655 C3.37441176,1.20058824 3.21235294,0.811617647 2.89058824,0.4875 C2.57029412,0.162794118 2.18264706,0 1.73264706,0 C1.27,0 0.876029412,0.160441176 0.555588235,0.477941176 C0.233970588,0.796470588 0.0735294118,1.18882353 0.0735294118,1.65647059 L0.0735294118,8.28720588 C0.0735294118,9.65102941 0.555588235,10.8161765 1.52014706,11.7832353 C2.48544118,12.7522059 3.64911765,13.2352941 5.00970588,13.2352941 L8.27485294,13.2352941 C8.72808824,13.2352941 9.11735294,13.0725 9.44102941,12.7479412 C9.765,12.4248529 9.92661765,12.0348529 9.92661765,11.5808824 C9.92661765,11.1267647 9.765,10.7376471 9.44102941,10.4130882 C9.11720588,10.0892647 8.7275,9.92588235 8.27367647,9.92588235 Z" id="Twitter"></path>
                        </g>
                    </g>
                </g>
            </g>
        </g>
    </g>
</svg>