<?xml version="1.0" encoding="UTF-8"?>
<svg width="37px" height="37px" viewBox="0 0 37 37" version="1.1" xmlns="http://www.w3.org/2000/svg" xmlns:xlink="http://www.w3.org/1999/xlink">
    <!-- Generator: Sketch 52.1 (67048) - http://www.bohemiancoding.com/sketch -->
    <title>youtube</title>
    <desc>Created with Sketch.</desc>
    <g id="Symbols" stroke="none" stroke-width="1" fill="none" fill-rule="evenodd">
        <g id="footer" transform="translate(-771.000000, -42.000000)">
            <g id="social">
                <g transform="translate(588.000000, 43.000000)">
                    <g id="youtube" transform="translate(184.000000, 0.000000)">
                        <circle id="Oval-Copy-3" stroke-opacity="0.251528533" stroke="#646E83" fill-opacity="0.504585598" fill="#FFFFFF" cx="17.5" cy="17.5" r="17.5"></circle>
                        <g id="yt" transform="translate(10.000000, 12.000000)" fill="#646E83" fill-rule="nonzero">
                            <path d="M15.32,1.06 C14.886,0.288 14.415,0.146 13.456,0.092 C12.498,0.027 10.089,0 8.002,0 C5.911,0 3.501,0.027 2.544,0.091 C1.587,0.146 1.115,0.287 0.677,1.06 C0.23,1.831 0,3.159 0,5.497 C0,5.499 0,5.5 0,5.5 C0,5.502 0,5.503 0,5.503 L0,5.505 C0,7.833 0.23,9.171 0.677,9.934 C1.115,10.706 1.586,10.846 2.543,10.911 C3.501,10.967 5.911,11 8.002,11 C10.089,11 12.498,10.967 13.457,10.912 C14.416,10.847 14.887,10.707 15.321,9.935 C15.772,9.172 16,7.834 16,5.506 C16,5.506 16,5.503 16,5.501 C16,5.501 16,5.499 16,5.498 C16,3.159 15.772,1.831 15.32,1.06 Z M6,8.5 L6,2.5 L11,5.5 L6,8.5 Z" id="Shape"></path>
                        </g>
                    </g>
                </g>
            </g>
        </g>
    </g>
</svg>