<?xml version="1.0" encoding="UTF-8"?>
<svg width="38px" height="44px" viewBox="0 0 38 44" version="1.1" xmlns="http://www.w3.org/2000/svg" xmlns:xlink="http://www.w3.org/1999/xlink">
    <!-- Generator: Sketch 52.4 (67378) - http://www.bohemiancoding.com/sketch -->
    <title>android</title>
    <desc>Created with Sketch.</desc>
    <g id="Page-1" stroke="none" stroke-width="1" fill="none" fill-rule="evenodd" opacity="0.5">
        <g id="styleguide10" transform="translate(-1505.000000, -779.000000)" fill="#8A96AF">
            <g id="Icons" transform="translate(559.000000, 550.000000)">
                <g id="14" transform="translate(885.322359, 202.112483)">
                    <g id="android" transform="translate(61.454047, 26.886145)">
                        <path d="M2.81811353,13.8052299 L2.70200442,13.8052299 C1.2135825,13.8052299 0,14.9798656 0,16.412232 L0,27.7626858 C0,29.2006795 1.2135825,30.3715059 2.70200442,30.3715059 L2.82008756,30.3715059 C4.30850948,30.3715059 5.52209198,29.1968702 5.52209198,27.7626858 L5.52209198,16.4121454 C5.52011795,14.9798656 4.30465114,13.8052299 2.81811353,13.8052299" id="Fill-1"></path>
                        <path d="M6.44244064,32.3238235 C6.44244064,33.6184334 7.51007597,34.6728064 8.81644095,34.6728064 L11.3533401,34.6728064 L11.3533401,40.6929252 C11.3533401,42.1067185 12.5172222,43.2563872 13.9364755,43.2563872 L14.0474766,43.2563872 C15.4723057,43.2563872 16.6343006,42.1049333 16.6343006,40.6929252 L16.6343006,34.6728064 L20.1796459,34.6728064 L20.1796459,40.6929252 C20.1796459,42.1067185 21.3472166,43.2563872 22.7664699,43.2563872 L22.8756696,43.2563872 C24.3004129,43.2563872 25.4606064,42.1049333 25.4606064,40.6929252 L25.4606064,34.6728064 L27.999307,34.6728064 C29.3037848,34.6728064 30.3715059,33.6184334 30.3715059,32.3238235 L30.3715059,14.7255786 L6.44244064,14.7255786 L6.44244064,32.3238235 Z" id="Fill-3"></path>
                        <path d="M23.9372217,9.57717785 C23.3031485,9.57717785 22.7885284,9.0498255 22.7885284,8.39355893 C22.7885284,7.73729236 23.3031485,7.21178667 23.9372217,7.21178667 C24.5730842,7.21178667 25.0840405,7.73720443 25.0840405,8.39355893 C25.0840405,9.0498255 24.5730842,9.57717785 23.9372217,9.57717785 M12.8750208,9.57717785 C12.2409476,9.57717785 11.7263275,9.0498255 11.7263275,8.39355893 C11.7263275,7.73729236 12.2409476,7.21178667 12.8750208,7.21178667 C13.5127577,7.21178667 14.0237141,7.73720443 14.0237141,8.39355893 C14.0237141,9.04991343 13.509094,9.57717785 12.8750208,9.57717785 M24.324976,3.86766751 L26.326456,0.679107183 C26.455111,0.477997489 26.3981109,0.203021534 26.2014647,0.0720847903 C26.0066929,-0.06069861 25.7401811,-0.00565065725 25.6133153,0.201086941 L23.538306,3.49974317 C21.9817507,2.84154201 20.2431188,2.47168309 18.4070159,2.47168309 C16.5691237,2.47168309 14.8341554,2.84154201 13.2738513,3.49974317 L11.2025909,0.201086941 C11.0758103,-0.00565065725 10.807424,-0.06069861 10.6107778,0.0720847903 C10.4141316,0.202933598 10.3571315,0.477997489 10.4857865,0.679107183 L12.4890558,3.86766751 C8.87759884,5.69436259 6.44244064,9.13714597 6.44244064,13.0863529 C6.44244064,13.3291443 6.45718059,13.5681544 6.47737346,13.8052299 L30.3384475,13.8052299 C30.3586404,13.5681544 30.3715059,13.3291443 30.3715059,13.0863529 C30.3715911,9.13714597 27.9345585,5.69436259 24.324976,3.86766751" id="Fill-5"></path>
                        <path d="M34.1099681,13.8052299 L33.9977173,13.8052299 C32.5092954,13.8052299 31.2918546,14.9798656 31.2918546,16.412232 L31.2918546,27.7626858 C31.2918546,29.2006795 32.5112694,30.3715059 33.9977173,30.3715059 L34.1119421,30.3715059 C35.6022483,30.3715059 36.8139465,29.1968702 36.8139465,27.7626858 L36.8139465,16.4121454 C36.8139465,14.9798656 35.59839,13.8052299 34.1099681,13.8052299" id="Fill-7"></path>
                    </g>
                </g>
            </g>
        </g>
    </g>
</svg>