<?xml version="1.0" encoding="UTF-8"?>
<svg width="22px" height="18px" viewBox="0 0 22 18" version="1.1" xmlns="http://www.w3.org/2000/svg" xmlns:xlink="http://www.w3.org/1999/xlink">
    <!-- Generator: Sketch 52.4 (67378) - http://www.bohemiancoding.com/sketch -->
    <title>blackberry</title>
    <desc>Created with Sketch.</desc>
    <g id="Page-1" stroke="none" stroke-width="1" fill="none" fill-rule="evenodd" opacity="0.5">
        <g id="12-Details" transform="translate(-1067.000000, -468.000000)" fill="#8A96AF">
            <g id="content" transform="translate(155.000000, 239.000000)">
                <g id="text" transform="translate(523.984572, 0.500638)">
                    <g id="Group-2-Copy" transform="translate(0.015428, 179.499362)">
                        <g id="Group-Copy-3">
                            <g transform="translate(320.000000, 0.000000)">
                                <g id="Group-7" transform="translate(11.000000, 47.000000)">
                                    <path d="M61.5998908,2 L58.9405022,2 L57.6648472,6.89956332 L61.5949782,6.89956332 C62.8177521,6.76047007 63.7044192,5.66851556 63.5895197,4.44323144 C63.6970306,3.22450872 62.8151305,2.14154983 61.5998908,2 Z M69.5747817,2 L66.9170306,2 L65.639738,6.89956332 L69.569869,6.89956332 C70.792643,6.76047007 71.67931,5.66851556 71.5644105,4.44323144 C71.6719215,3.22450872 70.7900212,2.14154983 69.5747817,2 Z M68.2450873,8.5371179 L65.5873362,8.5371179 L64.3116812,13.4497817 L68.2418122,13.4497817 C69.4645862,13.3106884 70.3512532,12.218734 70.2363537,10.9934498 C70.3513502,9.76930314 69.4665432,8.67784717 68.2450873,8.5371179 Z M76.2691048,5.26200873 L73.6162664,5.26200873 L72.3406114,10.1746725 L76.2707424,10.1746725 C77.4935163,10.0355792 78.3801834,8.94362473 78.2652838,7.71834061 C78.3802803,6.49419397 77.4954734,5.402738 76.2740175,5.26200873 L76.2691048,5.26200873 Z M74.9443231,12.6310044 L72.2865721,12.6310044 L71.010917,17.5436681 L74.941048,17.5436681 C76.1651401,17.4062141 77.0536697,16.3137597 76.9388646,15.0873362 C77.0537641,13.8620521 76.1670971,12.7700976 74.9443231,12.6310044 Z M66.9694323,15.0873362 L64.3116812,15.0873362 L63.0360262,20 L66.9661572,20 C68.1889312,19.8609068 69.0755982,18.7689523 68.9606987,17.5436681 C69.0756951,16.3195216 68.1908882,15.2280656 66.9694323,15.0873362 Z M60.9350437,8.5371179 L58.2772926,8.5371179 L57,13.4497817 L60.930131,13.4497817 C62.152905,13.3106884 63.039572,12.218734 62.9246725,10.9934498 C63.0397183,9.76987119 62.1558405,8.67866396 60.9350437,8.5371179 Z" id="blackberry"></path>
                                </g>
                            </g>
                        </g>
                    </g>
                </g>
            </g>
        </g>
    </g>
</svg>