<?xml version="1.0" encoding="UTF-8"?>
<svg width="31px" height="31px" viewBox="0 0 31 31" version="1.1" xmlns="http://www.w3.org/2000/svg" xmlns:xlink="http://www.w3.org/1999/xlink">
    <!-- Generator: Sketch 52.4 (67378) - http://www.bohemiancoding.com/sketch -->
    <title>download</title>
    <desc>Created with Sketch.</desc>
    <g id="Page-1" stroke="none" stroke-width="1" fill="none" fill-rule="evenodd">
        <g id="styleguide10" transform="translate(-1334.000000, -584.000000)" fill="#64C489">
            <g id="Icons" transform="translate(559.000000, 550.000000)">
                <g id="5" transform="translate(708.641975, 0.000000)">
                    <g id="download" transform="translate(65.294925, 34.567901)">
                        <path d="M2.08695527,26.2621176 L30.7162605,26.2621176 C31.2585052,26.2621176 31.7019522,26.6942785 31.7159283,27.236343 L31.7646974,29.1278575 C31.7789323,29.6799588 31.3429055,30.139065 30.7908042,30.1532999 C30.7822145,30.1535213 30.7736223,30.1536321 30.7650297,30.1536321 L2.13572444,30.1536321 C1.59347973,30.1536321 1.15003278,29.7214712 1.13605666,29.1794067 L1.08728749,27.2878922 C1.07305259,26.7357909 1.50907943,26.2766847 2.0611807,26.2624498 C2.06977044,26.2622283 2.07836267,26.2621176 2.08695527,26.2621176 Z" id="Rectangle-3"></path>
                        <path d="M14.9747811,19.6179427 C16.1013951,20.7446627 16.7434165,20.7882633 17.9154345,19.6179427 L23.7428602,15.3089109 C24.551752,13.9461536 23.889999,12.8319515 22.2729579,12.8319515 L18.3762039,12.8319515 L18.3762039,1.89657289 C18.376416,0.84962816 17.5266818,0 16.4798431,0 L16.4171298,0 C15.3701851,0 14.5205569,0.84962816 14.5205569,1.89657289 L14.5205569,12.8319515 L10.5789098,12.8319515 C8.96208093,12.8319515 8.30011567,13.9470022 9.10900751,15.3089109 L14.9747811,19.6179427 Z" id="Path-Copy"></path>
                    </g>
                </g>
            </g>
        </g>
    </g>
</svg>