<?xml version="1.0" encoding="UTF-8"?>
<svg width="20px" height="20px" viewBox="0 0 20 20" version="1.1" xmlns="http://www.w3.org/2000/svg" xmlns:xlink="http://www.w3.org/1999/xlink">
    <!-- Generator: Sketch 52.4 (67378) - http://www.bohemiancoding.com/sketch -->
    <title>Filter cross</title>
    <desc>Created with Sketch.</desc>
    <g id="Page-1" stroke="none" stroke-width="1" fill="none" fill-rule="evenodd">
        <g id="styleguide10" transform="translate(-1515.000000, -590.000000)" fill="#30353F" fill-rule="nonzero" stroke="#30353F" stroke-width="0.5">
            <g id="Icons" transform="translate(559.000000, 550.000000)">
                <g id="6" transform="translate(885.322359, 0.000000)">
                    <path d="M71.2256731,59.3317302 C71.3385967,59.4446428 71.4865862,59.5011453 71.6345758,59.5011453 C71.7825654,59.5011453 71.930555,59.4446428 72.0434785,59.3317302 L80.6392256,50.733254 L89.2350189,59.3317765 C89.3478963,59.444689 89.4959784,59.5011916 89.6439679,59.5011916 C89.7919112,59.5011916 89.9399008,59.444689 90.0528707,59.3317765 C90.2786716,59.1059051 90.2786716,58.7396334 90.0528707,58.5136695 L81.4570311,49.9151933 L90.0528707,41.3167171 C90.2786716,41.0907994 90.2786716,40.724574 90.0528707,40.4986564 C89.8270235,40.2727387 89.4609124,40.2727387 89.2350189,40.4986564 L80.6392256,49.0971326 L72.0434323,40.4987489 C71.8175851,40.2728312 71.451474,40.2728312 71.2256268,40.4987489 C70.9997796,40.7246203 70.9997796,41.090892 71.2256268,41.3168096 L79.8214201,49.9152396 L71.2256731,58.5136695 C70.9998259,58.7395872 70.9998259,59.1058588 71.2256731,59.3317302 Z" id="Filter-cross"></path>
                </g>
            </g>
        </g>
    </g>
</svg>