<?xml version="1.0" encoding="UTF-8"?>
<svg width="35px" height="44px" viewBox="0 0 35 44" version="1.1" xmlns="http://www.w3.org/2000/svg" xmlns:xlink="http://www.w3.org/1999/xlink">
    <!-- Generator: Sketch 52.4 (67378) - http://www.bohemiancoding.com/sketch -->
    <title>iOS</title>
    <desc>Created with Sketch.</desc>
    <g id="Page-1" stroke="none" stroke-width="1" fill="none" fill-rule="evenodd" opacity="0.5">
        <g id="styleguide10" transform="translate(-1331.000000, -780.000000)" fill="#8A96AF">
            <g id="Icons" transform="translate(559.000000, 550.000000)">
                <g id="13" transform="translate(708.641975, 202.112483)">
                    <path d="M88.9458653,28.8065844 C86.8251626,28.8929284 84.2547787,30.2191503 82.7332116,32.0012326 C81.368102,33.58212 80.173044,36.1052948 80.4932916,38.5279545 C82.8605856,38.7126715 85.2771485,37.3249048 86.7510122,35.5428225 C88.223228,33.7567031 89.2169263,31.2786777 88.9458653,28.8065844 Z M96.6161518,43.1887217 C94.1383736,39.5627651 90.2783487,39.0660395 88.9029404,39.0086142 C85.6179934,38.6760082 82.493129,40.9426225 80.8260623,40.9426225 C79.163115,40.9426225 76.5905066,39.0578006 73.866137,39.1073166 C70.2856593,39.1605402 66.9842344,41.1892139 65.1406073,44.3958909 C61.420562,50.8510989 64.1879389,60.4140343 67.8137307,65.6493026 C69.585432,68.2119419 71.6980604,71.0901325 74.4718637,70.9873106 C77.1430098,70.8806987 78.1531036,69.2588638 81.3825201,69.2588638 C84.6118543,69.2588638 85.5197029,70.9873106 88.3463177,70.9342518 C91.2208008,70.8808635 93.0417709,68.3225909 94.8013609,65.7521246 C96.8358019,62.7791862 97.6735371,59.9009132 97.7230531,59.753189 C97.6591189,59.7240232 92.1180212,57.6012608 92.0624907,51.2202857 C92.0091848,45.8780759 96.4192412,43.3160133 96.6161518,43.1887217 Z" id="iOS"></path>
                </g>
            </g>
        </g>
    </g>
</svg>