<?xml version="1.0" encoding="UTF-8"?>
<svg width="14px" height="14px" viewBox="0 0 14 14" version="1.1" xmlns="http://www.w3.org/2000/svg" xmlns:xlink="http://www.w3.org/1999/xlink">
    <!-- Generator: Sketch 52.4 (67378) - http://www.bohemiancoding.com/sketch -->
    <title>Shape</title>
    <desc>Created with Sketch.</desc>
    <g id="Symbols" stroke="none" stroke-width="1" fill="none" fill-rule="evenodd">
        <g id="heart" fill="#64C489" fill-rule="nonzero">
            <path d="M12.5343689,1.00978501 C10.9539013,-0.508551806 8.51210627,-0.280488868 6.99999801,1.47840749 C5.48788975,-0.280488868 3.04609468,-0.511675956 1.4656271,1.00978501 C-0.59062138,2.98737185 -0.289840352,6.21149448 1.17578356,7.92040443 L5.97187377,13.5032602 C6.24531107,13.8219235 6.61171705,14 6.99999801,14 C7.39101335,14 7.75468495,13.8250476 8.02812225,13.5063843 L12.8242125,7.92352858 C14.287102,6.21461863 14.5933518,2.990496 12.5343689,1.00978501 Z M11.8890569,6.86756594 L7.09296669,12.4504217 C7.02734174,12.5254013 6.97265428,12.5254013 6.90702933,12.4504217 L2.11093912,6.86756594 C1.11289299,5.7053822 0.910549386,3.50598072 2.31054835,2.15947215 C3.37421944,1.13787515 5.01484323,1.2909585 6.04296747,2.48750788 L6.99999801,3.60282937 L7.95702855,2.48750788 C8.99062154,1.2847102 10.6312453,1.13787515 11.6894477,2.156348 C13.0867123,3.50285657 12.8788999,5.71475465 11.8890569,6.86756594 Z" id="Shape"></path>
        </g>
    </g>
</svg>