<?xml version="1.0" encoding="UTF-8"?>
<svg width="20px" height="11px" viewBox="0 0 20 11" version="1.1" xmlns="http://www.w3.org/2000/svg" xmlns:xlink="http://www.w3.org/1999/xlink">
    <!-- Generator: Sketch 52.4 (67378) - http://www.bohemiancoding.com/sketch -->
    <title>Nav Bar Arrow</title>
    <desc>Created with Sketch.</desc>
    <g id="Page-1" stroke="none" stroke-width="1" fill="none" fill-rule="evenodd">
        <g id="styleguide10" transform="translate(-985.000000, -594.000000)" fill="#000000">
            <g id="Icons" transform="translate(559.000000, 550.000000)">
                <g id="3" transform="translate(355.281207, 0.000000)">
                    <path d="M88.1006502,44.5382746 L80.6388982,52.0000265 L73.1771462,44.5382746 C72.6862415,44.0473698 71.9007939,44.0473698 71.429329,44.5382746 C71.1936948,44.7739088 71.0562414,45.0880879 71.0562414,45.4219031 C71.0562414,45.7557183 71.1936948,46.0698973 71.429329,46.3055316 L79.7747095,54.6509121 C80.0103438,54.8865464 80.3245228,55.0239997 80.658338,55.0239997 C80.9921533,55.0239997 81.3063323,54.8865464 81.5419666,54.6509121 L89.887347,46.3055316 C90.1229813,46.0698973 90.260631,45.7557183 90.260631,45.4219031 C90.2211623,45.0684517 90.0837089,44.7739088 89.8480747,44.5382746 C89.3571699,44.0473698 88.5717224,44.0473698 88.1006502,44.5382746 Z" id="Nav-Bar-Arrow"></path>
                </g>
            </g>
        </g>
    </g>
</svg>