<?xml version="1.0" encoding="UTF-8"?>
<svg width="23px" height="42px" viewBox="0 0 23 42" version="1.1" xmlns="http://www.w3.org/2000/svg" xmlns:xlink="http://www.w3.org/1999/xlink">
    <!-- Generator: Sketch 52.4 (67378) - http://www.bohemiancoding.com/sketch -->
    <title>mobile</title>
    <desc>Created with Sketch.</desc>
    <g id="Page-1" stroke="none" stroke-width="1" fill="none" fill-rule="evenodd" opacity="0.5">
        <g id="styleguide10" transform="translate(-806.000000, -780.000000)" fill="#8A96AF">
            <g id="Icons" transform="translate(559.000000, 550.000000)">
                <g id="10" transform="translate(176.680384, 202.112483)">
                    <path d="M73.0199239,62.8881512 L90.6927931,62.8881512 L90.6927931,33.4121973 L73.0199239,33.4121973 L73.0199239,62.8881512 Z M78.9108621,31.05596 C78.9108621,30.827527 79.0267328,30.6488091 79.1719944,30.6488091 L84.5406133,30.6488091 C84.683963,30.6488091 84.8018003,30.8312172 84.8018003,31.05596 L84.8018003,31.1646668 C84.8018003,31.3930998 84.683963,31.5718177 84.5406133,31.5718177 L79.1719944,31.5718177 C79.0286448,31.5718177 78.9108621,31.3894096 78.9108621,31.1646668 L78.9108621,31.05596 Z M81.8563585,67.8621681 C80.7724407,67.8621681 79.8927307,67.0368469 79.8927307,66.0199946 C79.8927307,65.0030399 80.7724407,64.1777699 81.8563585,64.1777699 C82.9403309,64.1777699 83.8199864,65.0030911 83.8199864,66.0199946 C83.8199864,67.0368982 82.9403309,67.8621681 81.8563585,67.8621681 Z M88.7291653,69.3986708 C88.7291653,69.3986708 92.6564756,69.3986708 92.6564756,65.7086349 L92.6564756,32.4966203 C92.6564756,28.8065844 88.7291653,28.8065844 88.7291653,28.8065844 L74.9835518,28.8065844 C74.9835518,28.8065844 71.0562414,28.8065844 71.0562414,32.4966203 L71.0562414,65.7086349 C71.0562414,69.3986708 74.9835518,69.3986708 74.9835518,69.3986708 L88.7291653,69.3986708 Z" id="mobile"></path>
                </g>
            </g>
        </g>
    </g>
</svg>