<?xml version="1.0" encoding="UTF-8"?>
<svg width="32px" height="38px" viewBox="0 0 32 38" version="1.1" xmlns="http://www.w3.org/2000/svg" xmlns:xlink="http://www.w3.org/1999/xlink">
    <!-- Generator: Sketch 52.4 (67378) - http://www.bohemiancoding.com/sketch -->
    <title>Sort By Icon</title>
    <desc>Created with Sketch.</desc>
    <g id="Page-1" stroke="none" stroke-width="1" fill="none" fill-rule="evenodd">
        <g id="styleguide10" transform="translate(-1686.000000, -580.000000)" fill="#297BFF">
            <g id="Icons" transform="translate(559.000000, 550.000000)">
                <g id="7" transform="translate(1062.002743, 0.000000)">
                    <g id="Sort-By-Icon" transform="translate(65.294925, 30.727023)">
                        <path d="M6.73255449,30.7176462 L6.73255449,0.548691483 C6.73255449,0.388756564 6.68365096,0.257048987 6.5855003,0.15428945 C6.48734965,0.0515899719 6.36211308,0 6.20938974,0 L4.43923698,0 C4.2867427,0 4.16116254,0.0513497392 4.06318368,0.154229392 C3.96531935,0.257229162 3.91612949,0.388756564 3.91612949,0.548631424 L3.91612949,30.7175861 L0.535944867,30.7175861 C0.296351902,30.7175861 0.132805652,30.8317567 0.0455351746,31.0603982 C-0.0417925672,31.2778688 -0.00342562486,31.4778025 0.159891568,31.6607397 L4.84724997,36.3344111 C4.96716099,36.4369304 5.09239756,36.4883402 5.22330327,36.4883402 C5.36497464,36.4883402 5.49044027,36.4369304 5.59935657,36.3344111 L10.3263447,31.6779764 C10.43549,31.5411038 10.4898909,31.4034505 10.4898909,31.2669382 C10.4898909,31.1062226 10.4407011,30.9751156 10.3428367,30.8715152 C10.2447433,30.7689959 10.1195068,30.7176462 9.96672618,30.7176462 L6.73255449,30.7176462 Z" id="Fill-4"></path>
                        <path d="M13.9231759,23.0452675 C13.7830757,23.0452675 13.6681473,23.0901507 13.5780229,23.1800748 C13.4881612,23.2699989 13.4430727,23.3851501 13.4430727,23.5250553 L13.4430727,25.4413957 C13.4430727,25.5812484 13.4880035,25.6964522 13.5780229,25.7863237 C13.6681473,25.8762478 13.7830757,25.9211836 13.9231759,25.9211836 L22.5651643,25.9211836 C22.7052645,25.9211836 22.8202454,25.8762478 22.910002,25.7863237 C23.0001264,25.6963996 23.0452675,25.5812484 23.0452675,25.4413957 L23.0452675,23.5250553 C23.0452675,23.3851501 23.0001264,23.2699463 22.910002,23.1800748 C22.820298,23.0902033 22.7052645,23.0452675 22.5651643,23.0452675 L13.9231759,23.0452675 Z" id="Fill-6"></path>
                        <path d="M30.1638759,3.86033144 L14.0433078,3.86033144 C13.8839338,3.86033144 13.7531945,3.90470915 13.6507312,3.99362029 C13.5485668,4.08263523 13.4971559,4.19630445 13.4971559,4.33447225 L13.4971559,6.22795417 C13.4971559,6.36632958 13.5482679,6.47984309 13.6507312,6.56880613 C13.7532542,6.65750965 13.8839338,6.70209497 14.0433078,6.70209497 L30.1638759,6.70209497 C30.3232499,6.70209497 30.4539294,6.65771726 30.5563927,6.56880613 C30.6587364,6.47984309 30.7097887,6.36632958 30.7097887,6.22795417 L30.7097887,4.33452415 C30.7100278,4.19630445 30.6587364,4.08242761 30.5564525,3.99362029 C30.4539294,3.90491677 30.3232499,3.86033144 30.1638759,3.86033144 Z" id="Fill-8"></path>
                        <path d="M13.9667662,13.4430727 C13.8139291,13.4430727 13.6885523,13.4880029 13.5902916,13.5781261 C13.4922603,13.6681443 13.4430727,13.7830711 13.4430727,13.9232219 L13.4430727,15.763564 C13.4430727,15.9037148 13.4920884,16.0186416 13.5902916,16.1086597 C13.6885523,16.1985728 13.8139291,16.2437132 13.9667662,16.2437132 L26.3625665,16.2437132 C26.5152316,16.2437132 26.6408378,16.198783 26.7392131,16.1086597 C26.8371298,16.0186416 26.8861454,15.9037148 26.8861454,15.763564 L26.8861454,13.9232219 C26.8861454,13.7830711 26.8371298,13.6679341 26.7392131,13.5781261 C26.6406085,13.4882131 26.5150023,13.4430727 26.3625665,13.4430727 L13.9667662,13.4430727 Z" id="Fill-11"></path>
                    </g>
                </g>
            </g>
        </g>
    </g>
</svg>