<?xml version="1.0" encoding="UTF-8"?>
<svg width="32px" height="43px" viewBox="0 0 32 43" version="1.1" xmlns="http://www.w3.org/2000/svg" xmlns:xlink="http://www.w3.org/1999/xlink">
    <!-- Generator: Sketch 52.4 (67378) - http://www.bohemiancoding.com/sketch -->
    <title>tablet</title>
    <desc>Created with Sketch.</desc>
    <g id="Page-1" stroke="none" stroke-width="1" fill="none" fill-rule="evenodd" opacity="0.5">
        <g id="styleguide10" transform="translate(-979.000000, -780.000000)" fill="#8A96AF">
            <g id="Icons" transform="translate(559.000000, 550.000000)">
                <g id="11" transform="translate(355.281207, 202.112483)">
                    <path d="M68.1787102,64.8674955 L93.1393943,64.8674955 L93.1393943,32.2340142 L68.1787102,32.2340142 L68.1787102,64.8674955 Z M80.6590522,69.7392892 C79.7225014,69.7392892 78.9651062,68.9818939 78.9651062,68.0465787 C78.9651062,67.110028 79.7225014,66.3513971 80.6590522,66.3513971 C81.5931319,66.3513971 82.3529982,67.110028 82.3529982,68.0465787 C82.3529982,68.9818939 81.5931319,69.7392892 80.6590522,69.7392892 Z M93.1727542,28.8065844 L68.1428791,28.8065844 C66.5650752,28.8065844 65.2949246,30.0829128 65.2949246,31.6594811 L65.2949246,67.9563832 C65.2949246,69.5280093 66.5650752,70.8080444 68.1428791,70.8080444 L93.1727542,70.8080444 C94.7456159,70.8080444 96.0219443,69.5292448 96.0219443,67.9563832 L96.0219443,31.6594811 C96.0244154,30.0829128 94.7468514,28.8065844 93.1727542,28.8065844 Z" id="tablet"></path>
                </g>
            </g>
        </g>
    </g>
</svg>